<svg width="506" height="409" viewBox="0 0 506 409" fill="none" xmlns="http://www.w3.org/2000/svg">
<path d="M22.565 130.325C-7.09435 171.29 -11.244 284.691 32.8324 315.664C81.8845 350.134 157.629 338.444 341.974 343.64C526.319 348.835 523.147 296.742 485.388 256.277C451.415 219.871 447.493 200.265 474.301 148.31C510.588 77.9834 499.587 39.0713 474.301 19.4218C432.513 -13.05 372.546 -6.05612 341.974 49.8953C311.402 105.847 228.85 109.177 191.395 103.848C148.617 91.6922 76.4638 55.8822 22.565 130.325Z" fill="#B9C2FF"/>
<path d="M209.527 65.1968C210.501 70.7843 209.565 76.4999 206.837 81.6203C204.109 86.7407 199.711 91.0358 194.2 93.962C188.689 96.8882 182.313 98.3139 175.878 98.0589C169.444 97.8038 163.24 95.8793 158.052 92.529C152.864 89.1787 148.926 84.5531 146.735 79.2376C144.543 73.9222 144.198 68.1558 145.743 62.6681C147.287 57.1805 150.652 52.2182 155.412 48.4094C160.171 44.6006 166.111 42.1164 172.479 41.2711C176.702 40.7063 181.011 40.8771 185.158 41.7739C189.306 42.6707 193.211 44.2759 196.652 46.4978C200.092 48.7197 203 51.5147 205.209 54.7231C207.418 57.9316 208.886 61.4905 209.527 65.1968V65.1968Z" fill="#F5F5F5"/>
<path d="M201.842 66.205C202.586 70.4642 201.874 74.8215 199.794 78.7252C197.715 82.6289 194.363 85.9034 190.162 88.1343C185.961 90.3652 181.101 91.4521 176.196 91.2575C171.29 91.0629 166.561 89.5954 162.607 87.0409C158.653 84.4864 155.651 80.9598 153.982 76.9074C152.312 72.855 152.051 68.459 153.23 64.2761C154.409 60.0931 156.976 56.3112 160.605 53.4091C164.235 50.507 168.764 48.6152 173.619 47.9732C180.117 47.1073 186.74 48.5416 192.033 51.9606C197.325 55.3796 200.854 60.5033 201.842 66.205V66.205Z" fill="#EBEBEB"/>
<path d="M201.717 65.5299C201.565 65.5299 201.299 64.6296 200.625 63.029C199.673 60.7893 198.334 58.6916 196.654 56.81C194.179 54.036 190.966 51.8376 187.297 50.4076C185.15 49.5655 182.875 49.0037 180.543 48.7403C179.315 48.5978 178.076 48.5393 176.838 48.5653C174.277 48.6186 171.742 49.0237 169.324 49.7657C168.156 50.1314 167.019 50.5717 165.923 51.0829C164.865 51.5681 163.852 52.1256 162.893 52.7502C161.965 53.3485 161.092 54.009 160.281 54.7259C158.763 56.0537 157.451 57.5503 156.377 59.1776C155.434 60.5906 154.676 62.0923 154.116 63.6542C153.303 65.9366 152.899 68.3158 152.919 70.7069C152.919 72.3742 153.061 73.3662 152.919 73.3829C152.776 73.3995 152.434 72.4909 152.187 70.7402C151.877 68.2561 152.096 65.743 152.833 63.3291C153.335 61.6495 154.066 60.029 155.009 58.5023C156.098 56.7423 157.456 55.1212 159.046 53.6838C159.899 52.9025 160.82 52.1806 161.801 51.5247C163.887 50.1 166.218 48.9745 168.707 48.1901C171.305 47.3713 174.04 46.932 176.8 46.8896C178.141 46.8645 179.482 46.937 180.809 47.1064C182.095 47.2595 183.366 47.502 184.609 47.8317C189.913 49.2311 194.54 52.1333 197.765 56.0847C199.427 58.1156 200.645 60.3996 201.356 62.8206C201.803 64.5462 201.822 65.5133 201.717 65.5299Z" fill="#E0E0E0"/>
<path d="M182.281 81.9279L182.993 85.671L179.193 86.2212L178.509 82.5782C174.71 82.9283 170.91 82.4114 168.525 81.286L169.846 76.901C172.286 77.9229 174.986 78.371 177.683 78.2015L176.628 72.6244C172.23 72.3327 167.281 71.7908 166.379 67.0057C165.714 63.471 168.07 60.0031 173.978 58.5275L173.285 54.8178L177.084 54.2676L177.778 57.9106C180.523 57.6473 183.3 57.9587 185.881 58.8193L184.76 63.2043C182.796 62.5519 180.703 62.2514 178.604 62.3206L179.678 67.9977C184.066 68.2478 188.94 68.8314 189.833 73.5248C190.469 76.9927 188.142 80.419 182.281 81.9279ZM175.697 67.756L174.748 63.0125C172.848 63.7044 172.192 64.7882 172.401 65.8969C172.61 67.0057 173.931 67.5142 175.697 67.7143V67.756ZM183.762 74.8586C183.544 73.6832 182.319 73.1913 180.58 72.9496L181.454 77.5596C183.287 76.8677 183.962 75.8506 183.762 74.8169V74.8586Z" fill="#E0E0E0"/>
<path d="M404.652 220.163C405.244 223.586 404.666 227.086 402.991 230.221C401.317 233.356 398.621 235.984 395.244 237.775C391.867 239.565 387.961 240.436 384.02 240.278C380.079 240.12 376.279 238.94 373.102 236.888C369.925 234.835 367.513 232.002 366.171 228.746C364.828 225.491 364.616 221.959 365.561 218.597C366.506 215.236 368.565 212.196 371.479 209.861C374.392 207.527 378.029 206.003 381.929 205.482C384.52 205.136 387.163 205.242 389.707 205.793C392.251 206.343 394.646 207.328 396.756 208.692C398.866 210.055 400.649 211.77 402.004 213.738C403.359 215.706 404.259 217.889 404.652 220.163V220.163Z" fill="#F5F5F5"/>
<path d="M399.95 220.788C400.399 223.396 399.956 226.062 398.679 228.449C397.401 230.836 395.346 232.837 392.773 234.2C390.2 235.562 387.224 236.224 384.222 236.103C381.22 235.982 378.326 235.082 375.907 233.518C373.487 231.953 371.65 229.795 370.628 227.315C369.607 224.835 369.445 222.144 370.165 219.584C370.885 217.023 372.454 214.707 374.673 212.929C376.892 211.151 379.662 209.99 382.633 209.592C384.608 209.329 386.623 209.409 388.562 209.829C390.502 210.249 392.328 211 393.937 212.04C395.545 213.08 396.904 214.388 397.936 215.889C398.968 217.39 399.652 219.055 399.95 220.788V220.788Z" fill="#EBEBEB"/>
<path d="M399.885 220.372C399.598 219.883 399.372 219.369 399.211 218.838C398.238 216.506 396.568 214.447 394.375 212.877C393.351 212.161 392.228 211.561 391.032 211.093C390.39 210.836 389.726 210.624 389.046 210.46C388.34 210.278 387.619 210.145 386.89 210.06C386.134 209.976 385.372 209.942 384.61 209.959C383.826 209.976 383.045 210.046 382.273 210.168C381.504 210.299 380.746 210.474 380.003 210.693C379.285 210.928 378.587 211.207 377.913 211.527C377.267 211.833 376.647 212.181 376.061 212.569C375.49 212.934 374.953 213.338 374.455 213.778C373.524 214.586 372.717 215.497 372.052 216.487C371.478 217.357 371.013 218.28 370.665 219.238C370.171 220.639 369.924 222.098 369.933 223.565C369.996 224.119 369.996 224.677 369.933 225.232C369.651 224.725 369.498 224.17 369.487 223.606C369.29 222.084 369.422 220.542 369.877 219.063C370.753 216.179 372.69 213.629 375.386 211.81C376.013 211.388 376.677 211.008 377.372 210.676C378.09 210.328 378.84 210.033 379.613 209.793C380.412 209.543 381.231 209.348 382.064 209.209C382.899 209.084 383.744 209.011 384.591 208.992C386.199 208.961 387.802 209.156 389.341 209.568C390.07 209.759 390.781 209.998 391.469 210.285C393.848 211.261 395.899 212.76 397.425 214.636C398.446 215.894 399.194 217.308 399.629 218.804C399.834 219.306 399.921 219.839 399.885 220.372V220.372Z" fill="#E0E0E0"/>
<path d="M387.953 230.433L388.39 232.725L386.053 233.067L385.635 230.833C383.544 231.066 381.421 230.777 379.508 229.999L380.325 227.315C381.817 227.957 383.474 228.245 385.132 228.149L384.477 224.722C381.788 224.547 378.777 224.206 378.188 221.28C377.779 219.104 379.233 216.978 382.852 216.069L382.425 213.793L384.752 213.46L385.179 215.694C386.866 215.53 388.572 215.721 390.157 216.253L389.464 218.945C388.252 218.541 386.96 218.354 385.664 218.395L386.319 221.88C389.008 222.038 392.019 222.38 392.551 225.273C392.978 227.407 391.554 229.508 387.953 230.433ZM383.916 221.738L383.365 218.829C382.168 219.254 381.798 219.921 381.921 220.596C382.045 221.271 382.833 221.571 383.916 221.738ZM388.865 226.098C388.723 225.381 387.972 225.089 386.918 224.931L387.45 227.757C388.571 227.332 388.989 226.74 388.865 226.065V226.098Z" fill="#E0E0E0"/>
<path d="M122.435 237.278C123.246 241.93 122.465 246.689 120.192 250.951C117.92 255.214 114.257 258.79 109.668 261.225C105.079 263.66 99.7697 264.846 94.4124 264.632C89.0551 264.418 83.8906 262.814 79.5726 260.023C75.2545 257.232 71.9771 253.379 70.1551 248.953C68.3331 244.526 68.0484 239.725 69.3372 235.157C70.6259 230.588 73.4301 226.458 77.3948 223.289C81.3596 220.12 86.3065 218.054 91.6096 217.354C98.7079 216.409 105.943 217.977 111.724 221.714C117.505 225.45 121.357 231.049 122.435 237.278V237.278Z" fill="#F5F5F5"/>
<path d="M116.062 238.12C116.68 241.665 116.085 245.291 114.354 248.539C112.623 251.788 109.832 254.512 106.335 256.368C102.838 258.224 98.793 259.128 94.7108 258.965C90.6285 258.802 86.6931 257.58 83.4025 255.454C80.1119 253.328 77.6141 250.392 76.2253 247.02C74.8365 243.647 74.6191 239.988 75.6006 236.507C76.5822 233.026 78.7185 229.879 81.7392 227.463C84.7599 225.048 88.5292 223.474 92.57 222.939C95.2484 222.582 97.9809 222.691 100.611 223.26C103.242 223.83 105.718 224.848 107.9 226.258C110.082 227.668 111.925 229.441 113.326 231.476C114.726 233.512 115.656 235.769 116.062 238.12V238.12Z" fill="#EBEBEB"/>
<path d="M115.956 237.578C115.559 236.913 115.241 236.215 115.006 235.493C114.216 233.625 113.101 231.876 111.7 230.308C109.641 227.999 106.966 226.169 103.911 224.981C103.037 224.644 102.135 224.365 101.213 224.148C99.2787 223.637 97.2672 223.386 95.2473 223.406C94.1831 223.43 93.1226 223.525 92.0745 223.689C91.0298 223.861 90.0011 224.101 88.9967 224.406C88.0158 224.708 87.063 225.076 86.1469 225.506C85.2683 225.916 84.4267 226.384 83.6296 226.907C82.8594 227.416 82.1324 227.973 81.4542 228.574C80.1939 229.676 79.0989 230.914 78.196 232.259C77.4115 233.434 76.7745 234.681 76.2961 235.977C75.642 237.868 75.3216 239.836 75.3461 241.813C75.4355 242.552 75.4355 243.298 75.3461 244.038C74.96 243.353 74.7523 242.602 74.7382 241.838C74.4754 239.77 74.6558 237.678 75.2701 235.669C75.695 234.272 76.3039 232.923 77.0845 231.65C77.9918 230.185 79.1233 228.836 80.4473 227.641C81.1543 227.011 81.9166 226.431 82.7272 225.907C83.579 225.329 84.481 224.81 85.425 224.356C86.4032 223.891 87.4192 223.489 88.4648 223.156C89.5503 222.825 90.6614 222.563 91.7896 222.372C92.9196 222.199 94.0626 222.098 95.2093 222.072C96.3246 222.053 97.4398 222.114 98.5436 222.255C99.6089 222.382 100.661 222.586 101.688 222.864C102.666 223.119 103.619 223.443 104.538 223.831C107.763 225.152 110.549 227.175 112.631 229.708C114.015 231.396 115.026 233.296 115.614 235.31C115.916 236.035 116.033 236.809 115.956 237.578V237.578Z" fill="#E0E0E0"/>
<path d="M99.7796 251.207L100.369 254.317L97.2052 254.784L96.6353 251.749C93.8045 252.083 90.9238 251.711 88.3233 250.674L89.4253 247.023C91.4541 247.872 93.6994 248.246 95.9418 248.106L95.0679 243.463C91.4106 243.221 87.2879 242.763 86.5185 238.786C85.958 235.835 87.9244 232.951 92.8355 231.725L92.2561 228.641L95.4194 228.174L95.9893 231.208C98.2773 230.991 100.592 231.251 102.743 231.967L101.793 235.618C100.155 235.08 98.4124 234.828 96.6638 234.876L97.5567 239.611C101.214 239.82 105.27 240.287 106.011 244.205C106.6 247.098 104.662 249.957 99.7796 251.207ZM94.2984 239.37L93.548 235.427C91.9331 236.002 91.4201 236.902 91.5911 237.819C91.7621 238.736 92.826 239.186 94.2984 239.37V239.37ZM101.014 245.28C100.825 244.313 99.8081 243.913 98.3642 243.696L99.0956 247.531C100.616 246.998 101.176 246.172 101.014 245.28Z" fill="#E0E0E0"/>
<path d="M441.917 178.764L276.419 133.555C274.378 132.997 272.672 131.75 271.678 130.088C270.684 128.426 270.483 126.486 271.119 124.694L302.942 35.002C303.252 34.109 303.762 33.279 304.44 32.5597C305.119 31.8405 305.953 31.2463 306.894 30.8115C307.836 30.3766 308.866 30.1098 309.926 30.0263C310.985 29.9429 312.053 30.0445 313.068 30.3252L478.538 75.5338C479.549 75.8084 480.489 76.2555 481.303 76.8495C482.117 77.4434 482.789 78.1725 483.282 78.995C483.774 79.8174 484.077 80.7171 484.172 81.6424C484.268 82.5677 484.154 83.5004 483.838 84.3871L452.015 174.112C451.379 175.904 449.958 177.401 448.064 178.273C446.17 179.146 443.959 179.322 441.917 178.764Z" fill="#E0E0E0"/>
<path d="M297.938 98.6427L294.813 107.463L293.777 107.179L296.627 99.1679L294.262 98.526L294.547 97.6924L297.938 98.6427Z" fill="white"/>
<path d="M305.471 109.471L305.186 110.305L298.09 108.363L298.318 107.721L303.77 105.27C305.252 104.603 305.67 104.069 305.889 103.461C306.25 102.444 305.661 101.593 304.122 101.177C303.621 101.007 303.083 100.94 302.548 100.981C302.013 101.021 301.495 101.168 301.035 101.41L300.503 100.651C301.107 100.347 301.78 100.163 302.475 100.113C303.169 100.062 303.868 100.147 304.521 100.36C306.563 100.91 307.532 102.169 307.01 103.644C306.706 104.478 306.136 105.161 304.378 105.953L299.923 107.963L305.471 109.471Z" fill="white"/>
<path d="M316.525 110.864L314.52 110.322L313.694 112.639L312.668 112.356L313.485 110.038L307.785 108.488L308.013 107.838L315.413 103.444L316.553 103.761L309.4 108.046L313.798 109.196L314.52 107.154L315.527 107.429L314.805 109.472L316.81 110.022L316.525 110.864Z" fill="white"/>
<path d="M331.915 115.032L329.911 114.482L329.094 116.799L328.058 116.516L328.875 114.198L323.176 112.648L323.404 111.997L330.804 107.612L331.944 107.921L324.791 112.206L329.151 113.398L329.873 111.364L330.88 111.639L330.167 113.698L332.172 114.248L331.915 115.032Z" fill="white"/>
<path d="M340.796 117.174C340.264 118.674 338.658 119.516 336.198 118.841C334.865 118.509 333.727 117.742 333.016 116.699L333.766 116.115C334.364 117.025 335.342 117.694 336.492 117.983C338.202 118.449 339.342 117.983 339.741 116.89C340.14 115.798 339.589 114.831 337.034 114.139L334.897 113.556L336.986 109.279L342.477 110.78L342.192 111.614L337.604 110.363L336.264 113.072L337.556 113.431C340.615 114.256 341.347 115.615 340.796 117.174Z" fill="white"/>
<path d="M350.733 119.85C350.144 121.517 348.292 122.151 346.344 121.617C343.675 120.892 342.801 118.866 343.789 116.09C344.853 113.089 347.266 112.039 349.992 112.756C350.834 112.948 351.6 113.341 352.205 113.889L351.531 114.506C351.046 114.044 350.419 113.714 349.726 113.556C347.56 112.964 345.736 113.806 344.891 116.199C344.803 116.436 344.733 116.678 344.682 116.924C345.143 116.518 345.729 116.238 346.369 116.12C347.008 116.002 347.673 116.049 348.282 116.257C350.277 116.824 351.303 118.241 350.733 119.85ZM349.707 119.592C350.116 118.433 349.403 117.424 347.855 117.007C347.55 116.889 347.222 116.827 346.889 116.825C346.556 116.822 346.226 116.88 345.92 116.994C345.614 117.108 345.337 117.276 345.108 117.488C344.879 117.7 344.701 117.95 344.587 118.224C344.245 119.191 344.834 120.367 346.572 120.842C346.87 120.957 347.192 121.016 347.517 121.014C347.842 121.012 348.163 120.951 348.459 120.833C348.755 120.715 349.019 120.543 349.234 120.329C349.449 120.115 349.61 119.864 349.707 119.592V119.592Z" fill="white"/>
<path d="M364.432 123.702C363.919 125.177 362.295 125.977 359.873 125.311C358.532 124.989 357.38 124.232 356.652 123.193L357.412 122.609C358.014 123.528 359.003 124.202 360.167 124.485C361.829 124.935 363.017 124.485 363.378 123.41C363.739 122.334 363.15 121.434 361.288 120.909L360.566 120.709L360.804 120.042L364.67 117.741L359.54 116.34L359.825 115.507L366.275 117.274L366.047 117.916L362.095 120.275C364.214 121.001 364.936 122.293 364.432 123.702Z" fill="white"/>
<path d="M374.538 126.353C373.958 128.02 372.106 128.654 370.149 128.12C367.48 127.395 366.606 125.378 367.594 122.593C368.658 119.592 371.08 118.542 373.806 119.259C374.646 119.453 375.41 119.841 376.02 120.384L375.345 121.001C374.857 120.541 374.232 120.212 373.54 120.051C371.374 119.459 369.551 120.301 368.696 122.693C368.629 122.893 368.553 123.152 368.487 123.427C368.947 123.017 369.534 122.734 370.176 122.614C370.818 122.494 371.485 122.542 372.096 122.752C374.091 123.368 375.108 124.744 374.538 126.353ZM373.512 126.103C373.92 124.944 373.208 123.935 371.659 123.51C371.356 123.393 371.028 123.332 370.696 123.331C370.364 123.329 370.036 123.387 369.731 123.501C369.425 123.615 369.15 123.783 368.921 123.994C368.693 124.204 368.516 124.454 368.401 124.727C368.05 125.703 368.648 126.87 370.377 127.345C370.674 127.46 370.995 127.519 371.32 127.518C371.644 127.517 371.965 127.456 372.261 127.339C372.556 127.221 372.821 127.051 373.036 126.838C373.252 126.625 373.414 126.374 373.512 126.103Z" fill="white"/>
<path d="M385.966 122.693L385.738 123.335L378.613 130.363L377.492 130.054L384.465 123.177L379.297 121.768L378.718 123.435L377.701 123.16L378.566 120.709L385.966 122.693Z" fill="white"/>
<path d="M400.329 126.62L400.101 127.262L392.996 134.281L391.875 133.973L398.848 127.095L393.689 125.686L393.1 127.353L392.084 127.07L392.958 124.619L400.329 126.62Z" fill="white"/>
<path d="M407.957 135.673C407.397 137.232 405.554 137.79 403.15 137.14C400.747 136.49 399.626 135.114 400.177 133.547C400.343 133.039 400.702 132.597 401.195 132.294C401.688 131.99 402.284 131.844 402.884 131.88C402.465 131.622 402.151 131.253 401.99 130.826C401.829 130.4 401.829 129.939 401.991 129.512C402.504 128.078 404.214 127.562 406.333 128.137C408.451 128.712 409.562 130.004 409.049 131.471C408.904 131.905 408.602 132.285 408.189 132.556C407.777 132.826 407.275 132.972 406.76 132.972C407.278 133.237 407.679 133.648 407.896 134.139C408.114 134.629 408.135 135.17 407.957 135.673V135.673ZM406.893 135.373C407.283 134.289 406.456 133.322 404.68 132.83C402.903 132.338 401.611 132.739 401.231 133.822C400.851 134.906 401.649 135.881 403.426 136.373C405.202 136.865 406.513 136.465 406.893 135.373ZM404.936 132.113C406.504 132.538 407.653 132.18 407.986 131.221C408.318 130.263 407.568 129.354 406.086 128.945C404.604 128.537 403.397 128.87 403.046 129.854C402.694 130.838 403.369 131.705 404.936 132.113V132.113Z" fill="white"/>
<path d="M418.424 136.315C417.36 139.308 414.938 140.359 412.221 139.65C411.379 139.457 410.613 139.065 410.008 138.516L410.682 137.899C411.164 138.365 411.792 138.695 412.487 138.85C414.653 139.442 416.477 138.6 417.322 136.207C417.41 135.969 417.48 135.727 417.531 135.482C417.071 135.89 416.485 136.17 415.845 136.289C415.205 136.407 414.54 136.359 413.931 136.149C411.936 135.607 410.91 134.198 411.48 132.581C412.05 130.963 413.922 130.28 415.869 130.813C418.51 131.505 419.46 133.531 418.424 136.315ZM417.626 134.173C417.968 133.206 417.379 132.03 415.641 131.564C415.344 131.447 415.023 131.387 414.698 131.387C414.373 131.388 414.052 131.449 413.755 131.566C413.459 131.683 413.195 131.855 412.979 132.068C412.764 132.282 412.603 132.533 412.506 132.806C412.098 133.964 412.81 134.973 414.359 135.398C414.661 135.516 414.988 135.578 415.319 135.582C415.65 135.585 415.978 135.529 416.284 135.418C416.59 135.306 416.866 135.141 417.097 134.933C417.328 134.725 417.508 134.477 417.626 134.206V134.173Z" fill="white"/>
<path d="M430.15 134.764L427.063 143.576L426.027 143.293L428.877 135.281L426.512 134.639L426.797 133.806L430.15 134.764Z" fill="white"/>
<path d="M437.634 145.593L437.349 146.427L430.301 144.501L430.529 143.859L435.981 141.417C437.463 140.742 437.881 140.208 438.1 139.608C438.461 138.582 437.862 137.732 436.333 137.315C435.832 137.146 435.293 137.079 434.759 137.119C434.224 137.16 433.706 137.306 433.246 137.549L432.704 136.79C433.308 136.488 433.98 136.307 434.673 136.258C435.365 136.209 436.062 136.294 436.713 136.507C438.746 137.065 439.715 138.324 439.202 139.791C438.898 140.625 438.328 141.308 436.57 142.1L432.106 144.118L437.634 145.593Z" fill="white"/>
<path d="M447.249 146.327C446.726 147.794 445.111 148.595 442.68 147.936C441.343 147.612 440.195 146.855 439.469 145.818L440.229 145.235C440.831 146.151 441.821 146.822 442.984 147.102C444.646 147.561 445.833 147.102 446.194 146.035C446.555 144.968 445.966 144.051 444.104 143.534L443.382 143.343L443.62 142.676L447.486 140.375L442.357 138.974L442.642 138.141L449.092 139.908L448.864 140.55L444.912 142.901C447.011 143.626 447.752 144.918 447.249 146.327Z" fill="white"/>
<path d="M366.94 134.315L365.582 138.144L446.016 160.115L447.374 156.287L366.94 134.315Z" fill="white"/>
<path d="M403.409 152.666L402.051 156.495L443.302 167.764L444.66 163.935L403.409 152.666Z" fill="white"/>
<g opacity="0.5">
<path d="M330.162 75.7013L305.535 68.8762C303.063 68.1911 300.426 69.3944 299.645 71.5639L294.55 85.7242C293.769 87.8936 295.14 90.2077 297.612 90.8928L322.24 97.7178C324.712 98.4029 327.349 97.1996 328.129 95.0301L333.225 80.8699C334.006 78.7004 332.634 76.3863 330.162 75.7013Z" fill="#EBEBEB"/>
</g>
<path d="M296.672 83.2455L297.175 81.8283L314.559 86.5801C315.524 86.8487 316.571 86.77 317.47 86.3611C318.369 85.9523 319.046 85.2469 319.352 84.4001C319.658 83.5533 319.568 82.6345 319.102 81.8457C318.636 81.057 317.832 80.463 316.868 80.1944L299.493 75.4426L299.997 74.0254L317.371 78.7772C318.764 79.1674 319.924 80.0274 320.594 81.1678C321.265 82.3083 321.392 83.6359 320.948 84.8586C320.503 86.0813 319.523 87.0988 318.223 87.6874C316.924 88.2761 315.411 88.3875 314.018 87.9973L296.672 83.2455Z" fill="#E0E0E0"/>
<path d="M320.363 83.8755L319.859 85.292L331.783 88.5592L332.287 87.1428L320.363 83.8755Z" fill="#E0E0E0"/>
<path d="M399.602 73.8274L312.801 50.1162L310.483 56.6512L397.284 80.3624L399.602 73.8274Z" fill="white"/>
<path d="M460.483 85.638L448.728 82.427C447.15 81.9959 445.473 82.7691 444.982 84.1538L441.323 94.4696C440.832 95.8544 441.713 97.3264 443.291 97.7574L455.045 100.968C456.623 101.4 458.301 100.626 458.792 99.2416L462.451 88.9258C462.942 87.541 462.061 86.069 460.483 85.638Z" fill="white"/>
<path d="M487.411 399.521C487.411 399.638 390.954 399.738 272.013 399.738C153.071 399.738 56.5859 399.638 56.5859 399.521C56.5859 399.405 153.014 399.305 272.013 399.305C391.011 399.305 487.411 399.396 487.411 399.521Z" fill="#263238"/>
<path d="M357.213 399.305L228.525 398.755C221.093 398.724 213.98 396.104 208.748 391.473C203.517 386.841 200.595 380.575 200.625 374.054L201.993 90.9479C202.007 87.7166 202.746 84.5194 204.169 81.5391C205.592 78.5589 207.67 75.854 210.285 73.5792C212.9 71.3044 216.001 69.5044 219.409 68.282C222.818 67.0596 226.467 66.4389 230.149 66.4554L358.828 66.9723C362.51 66.9865 366.153 67.6371 369.548 68.8871C372.944 70.1371 376.025 71.9618 378.617 74.2572C381.209 76.5525 383.26 79.2735 384.653 82.2646C386.046 85.2558 386.754 88.4585 386.737 91.6898L385.369 374.796C385.357 378.028 384.618 381.226 383.196 384.208C381.774 387.19 379.696 389.896 377.081 392.173C374.466 394.449 371.365 396.251 367.956 397.474C364.547 398.698 360.896 399.32 357.213 399.305Z" fill="#263238"/>
<path d="M358.804 77.5171L333.84 77.4587L260.961 77.1252L252.183 77.0836L230.335 77.0002C225.131 76.978 220.131 78.7702 216.433 81.9828C212.735 85.1953 210.642 89.5652 210.614 94.1316L209.313 370.485C209.292 375.052 211.339 379.439 215.003 382.683C218.667 385.927 223.649 387.761 228.853 387.783L357.275 388.308C359.853 388.318 362.409 387.882 364.795 387.025C367.182 386.168 369.353 384.907 371.184 383.314C373.015 381.721 374.471 379.827 375.468 377.74C376.465 375.653 376.984 373.415 376.996 371.152L378.325 94.8152C378.346 90.2509 376.302 85.866 372.642 82.6229C368.982 79.3798 364.005 77.5435 358.804 77.5171V77.5171Z" fill="#FAFAFA"/>
<path d="M359.616 101.861C359.616 102.141 359.522 102.416 359.344 102.649C359.166 102.882 358.913 103.064 358.617 103.171C358.322 103.278 357.997 103.305 357.683 103.25C357.37 103.195 357.082 103.059 356.856 102.86C356.631 102.661 356.478 102.407 356.417 102.132C356.355 101.856 356.389 101.571 356.512 101.312C356.636 101.054 356.845 100.833 357.111 100.678C357.378 100.523 357.691 100.442 358.011 100.443C358.223 100.443 358.432 100.48 358.628 100.551C358.823 100.623 359 100.727 359.15 100.859C359.299 100.991 359.417 101.147 359.497 101.319C359.577 101.491 359.618 101.675 359.616 101.861Z" fill="#263238"/>
<path d="M359.617 106.929C359.615 107.208 359.519 107.479 359.341 107.71C359.163 107.941 358.911 108.12 358.617 108.225C358.323 108.33 358 108.357 357.689 108.301C357.378 108.245 357.093 108.109 356.87 107.911C356.647 107.713 356.495 107.461 356.435 107.187C356.375 106.914 356.409 106.631 356.532 106.374C356.655 106.117 356.863 105.898 357.128 105.745C357.393 105.591 357.704 105.51 358.021 105.512C358.232 105.513 358.44 105.55 358.635 105.622C358.829 105.694 359.005 105.799 359.154 105.93C359.302 106.062 359.419 106.218 359.498 106.389C359.578 106.561 359.618 106.744 359.617 106.929V106.929Z" fill="#263238"/>
<path d="M359.558 112.006C359.557 112.285 359.461 112.557 359.283 112.787C359.105 113.018 358.853 113.197 358.559 113.303C358.265 113.408 357.942 113.434 357.631 113.378C357.32 113.322 357.034 113.186 356.811 112.988C356.588 112.79 356.437 112.538 356.377 112.264C356.317 111.991 356.35 111.708 356.474 111.451C356.597 111.194 356.804 110.975 357.069 110.822C357.334 110.668 357.645 110.587 357.963 110.589C358.174 110.589 358.383 110.626 358.578 110.697C358.773 110.768 358.949 110.873 359.098 111.005C359.246 111.137 359.363 111.293 359.442 111.465C359.522 111.637 359.561 111.821 359.558 112.006Z" fill="#263238"/>
<path d="M365.258 150.012H236.542C234.286 150.012 232.457 151.617 232.457 153.596V222.639C232.457 224.619 234.286 226.224 236.542 226.224H365.258C367.514 226.224 369.343 224.619 369.343 222.639V153.596C369.343 151.617 367.514 150.012 365.258 150.012Z" fill="#EBEBEB"/>
<path d="M361.497 145.068H232.78C230.524 145.068 228.695 146.673 228.695 148.653V217.695C228.695 219.675 230.524 221.28 232.78 221.28H361.497C363.753 221.28 365.581 219.675 365.581 217.695V148.653C365.581 146.673 363.753 145.068 361.497 145.068Z" fill="#E0E0E0"/>
<path d="M357.157 140.95H228.44C226.184 140.95 224.355 142.555 224.355 144.535V213.577C224.355 215.557 226.184 217.162 228.44 217.162H357.157C359.413 217.162 361.241 215.557 361.241 213.577V144.535C361.241 142.555 359.413 140.95 357.157 140.95Z" fill="#6276F6"/>
<path d="M244.502 181.34V180.14H243.913V181.34H241.358L244.369 178.006H243.723L240.598 181.432V181.824H243.922V183.183H244.53V181.824H245.708V181.349L244.502 181.34Z" fill="white"/>
<path d="M248.123 180.215L249.785 178.372V177.997H245.985V178.472H249.006L247.372 180.265V180.656H247.79C248.883 180.656 249.386 181.065 249.386 181.69C249.386 182.315 248.845 182.732 247.866 182.732C247.192 182.749 246.538 182.533 246.042 182.132L245.738 182.549C246.325 183.001 247.086 183.239 247.866 183.216C249.291 183.216 250.004 182.549 250.004 181.69C250.004 180.831 249.424 180.273 248.123 180.215Z" fill="white"/>
<path d="M252.328 180.114H251.568L251.777 178.447H254.475V177.972H251.245L250.941 180.564H252.195C253.696 180.564 254.171 180.981 254.171 181.648C254.171 182.315 253.639 182.707 252.632 182.707C251.964 182.722 251.316 182.507 250.827 182.107L250.523 182.523C251.107 182.974 251.865 183.212 252.642 183.19C254.086 183.19 254.779 182.507 254.779 181.623C254.779 180.739 254.105 180.114 252.328 180.114Z" fill="white"/>
<path d="M257.973 180.056C257.606 180.035 257.24 180.109 256.92 180.267C256.6 180.425 256.338 180.662 256.168 180.948C256.168 180.789 256.168 180.639 256.168 180.523C256.168 179.114 256.985 178.397 258.258 178.397C258.658 178.377 259.056 178.464 259.398 178.647L259.645 178.213C259.216 178.013 258.734 177.918 258.249 177.938C256.643 177.938 255.551 178.855 255.551 180.614C255.551 182.373 256.406 183.199 257.973 183.199C258.227 183.219 258.482 183.194 258.724 183.123C258.966 183.053 259.189 182.94 259.378 182.79C259.567 182.64 259.719 182.458 259.824 182.254C259.929 182.05 259.984 181.83 259.987 181.606C259.986 181.384 259.932 181.164 259.827 180.962C259.722 180.759 259.569 180.579 259.379 180.432C259.188 180.285 258.965 180.176 258.722 180.111C258.48 180.046 258.224 180.027 257.973 180.056V180.056ZM257.926 182.748C256.909 182.748 256.368 182.207 256.368 181.64C256.377 181.476 256.424 181.315 256.507 181.168C256.59 181.021 256.706 180.89 256.848 180.784C256.99 180.678 257.156 180.598 257.335 180.551C257.514 180.503 257.702 180.488 257.888 180.506C258.79 180.506 259.37 180.948 259.37 181.623C259.371 181.781 259.336 181.937 259.265 182.082C259.194 182.227 259.09 182.357 258.959 182.464C258.827 182.572 258.672 182.654 258.502 182.706C258.332 182.758 258.152 182.778 257.973 182.765L257.926 182.748Z" fill="white"/>
<path d="M271.643 181.174L273.315 179.281H272.65L271.32 180.807L269.99 179.281H269.316L270.988 181.174L269.23 183.174H269.905L271.32 181.507L272.726 183.174H273.41L271.643 181.174Z" fill="white"/>
<path d="M276.143 181.174L277.806 179.281H277.15L275.82 180.807L274.49 179.281H273.816L275.488 181.174L273.73 183.174H274.405L275.82 181.507L277.226 183.174H277.92L276.143 181.174Z" fill="white"/>
<path d="M280.638 181.174L282.31 179.281H281.654L280.324 180.807L278.985 179.281H278.31L279.982 181.174L278.234 183.174H278.871L280.286 181.507L281.692 183.174H282.376L280.638 181.174Z" fill="white"/>
<path d="M285.139 181.174L286.811 179.281H286.146L284.816 180.807L283.487 179.281H282.812L284.484 181.174L282.727 183.174H283.401L284.816 181.507L286.222 183.174H286.906L285.139 181.174Z" fill="white"/>
<path d="M300.72 181.174L302.392 179.281H301.67L300.34 180.807L299.01 179.281H298.336L299.998 181.174L298.25 183.174H298.924L300.34 181.507L301.746 183.174H302.43L300.72 181.174Z" fill="white"/>
<path d="M305.175 181.174L306.846 179.281H306.181L304.852 180.807L303.522 179.281H302.847L304.519 181.174L302.762 183.174H303.436L304.852 181.507L306.257 183.174H306.941L305.175 181.174Z" fill="white"/>
<path d="M309.679 181.174L311.341 179.281H310.686L309.356 180.807L308.026 179.281H307.371L309.043 181.174L307.285 183.174H307.96L309.375 181.507L310.781 183.174H311.465L309.679 181.174Z" fill="white"/>
<path d="M314.173 181.174L315.845 179.281H315.189L313.859 180.807L312.52 179.281H311.846L313.517 181.174L311.77 183.174H312.444L313.859 181.507L315.265 183.174H315.921L314.173 181.174Z" fill="white"/>
<path d="M327.215 177.997V178.472H328.611V183.174H329.219V177.997H327.215Z" fill="white"/>
<path d="M332.627 180.215L334.289 178.372V177.997H330.489V178.472H333.51L331.876 180.265V180.656H332.294C333.386 180.656 333.89 181.065 333.89 181.69C333.89 182.315 333.349 182.732 332.37 182.732C331.696 182.749 331.042 182.533 330.546 182.132L330.242 182.549C330.829 183.001 331.59 183.239 332.37 183.216C333.795 183.216 334.507 182.549 334.507 181.69C334.507 180.831 333.89 180.273 332.627 180.215Z" fill="white"/>
<path d="M339.202 181.34V180.14H338.613V181.34H336.058L339.069 178.006H338.395L335.27 181.432V181.824H338.604V183.183H339.202V181.824H340.39V181.349L339.202 181.34Z" fill="white"/>
<path d="M341.69 182.699L343.694 180.965C343.981 180.775 344.216 180.531 344.38 180.251C344.545 179.971 344.635 179.662 344.644 179.347C344.644 178.514 343.884 177.955 342.688 177.955C342.299 177.938 341.912 177.994 341.551 178.121C341.19 178.248 340.865 178.441 340.598 178.689L341.035 179.014C341.235 178.817 341.483 178.663 341.762 178.564C342.04 178.464 342.34 178.421 342.64 178.439C343.59 178.439 344.027 178.814 344.027 179.406C344.027 179.764 343.894 180.114 343.229 180.69L340.778 182.799V183.174H344.92V182.699H341.69Z" fill="white"/>
<path d="M239.099 194.704C238.973 194.715 238.846 194.703 238.726 194.669C238.606 194.634 238.496 194.578 238.402 194.504C238.308 194.43 238.233 194.339 238.182 194.238C238.131 194.136 238.104 194.027 238.104 193.916C238.104 193.805 238.131 193.695 238.182 193.594C238.233 193.493 238.308 193.402 238.402 193.328C238.496 193.254 238.606 193.198 238.726 193.163C238.846 193.129 238.973 193.117 239.099 193.128C239.234 193.126 239.368 193.151 239.49 193.202C239.611 193.252 239.718 193.327 239.802 193.42L240.22 193.078C240.026 192.878 239.766 192.736 239.477 192.67C239.188 192.603 238.882 192.616 238.601 192.707C238.321 192.798 238.078 192.962 237.907 193.178C237.736 193.393 237.645 193.649 237.645 193.912C237.645 194.174 237.736 194.43 237.907 194.646C238.078 194.861 238.321 195.025 238.601 195.116C238.882 195.207 239.188 195.22 239.477 195.154C239.766 195.088 240.026 194.945 240.22 194.745L239.802 194.404C239.72 194.499 239.614 194.576 239.492 194.628C239.37 194.68 239.235 194.706 239.099 194.704Z" fill="white"/>
<path d="M242.138 192.678H241.492L240.238 195.179H240.903L241.16 194.645H242.461L242.718 195.179H243.402L242.138 192.678ZM241.369 194.187L241.815 193.245L242.262 194.187H241.369Z" fill="white"/>
<path d="M245.556 194.353C245.729 194.289 245.877 194.181 245.98 194.043C246.083 193.905 246.137 193.743 246.135 193.578C246.135 193.028 245.661 192.678 244.91 192.678H243.723V195.179H244.369V194.487H244.967L245.518 195.179H246.211L245.556 194.353ZM244.872 194.012H244.34V193.178H244.872C245.271 193.178 245.471 193.336 245.471 193.611C245.471 193.887 245.271 194.012 244.872 194.012Z" fill="white"/>
<path d="M247.135 193.394C247.135 193.244 247.287 193.111 247.676 193.111C247.951 193.117 248.22 193.186 248.455 193.311L248.655 192.877C248.366 192.73 248.038 192.653 247.705 192.652C246.907 192.652 246.517 193.002 246.517 193.428C246.517 194.345 248.151 194.028 248.151 194.486C248.151 194.636 247.999 194.753 247.61 194.753C247.271 194.753 246.94 194.662 246.66 194.495L246.441 194.928C246.784 195.122 247.184 195.22 247.591 195.212C248.389 195.212 248.788 194.861 248.788 194.445C248.778 193.519 247.135 193.836 247.135 193.394Z" fill="white"/>
<path d="M252.275 192.678V193.653H250.992V192.678H250.375V195.179H251.021V194.162H252.275V195.179H252.93V192.678H252.275Z" fill="white"/>
<path d="M254.981 192.636C254.695 192.649 254.42 192.735 254.19 192.884C253.959 193.032 253.784 193.237 253.684 193.473C253.585 193.708 253.567 193.964 253.632 194.208C253.696 194.453 253.841 194.675 254.049 194.848C254.256 195.021 254.517 195.137 254.798 195.181C255.08 195.226 255.37 195.197 255.633 195.098C255.896 194.999 256.12 194.835 256.277 194.625C256.435 194.416 256.519 194.17 256.52 193.919C256.52 193.745 256.48 193.572 256.401 193.412C256.323 193.252 256.209 193.107 256.065 192.987C255.921 192.867 255.75 192.774 255.564 192.713C255.378 192.653 255.179 192.626 254.981 192.636V192.636ZM254.981 194.703C254.801 194.706 254.624 194.662 254.473 194.577C254.322 194.492 254.204 194.369 254.133 194.224C254.062 194.079 254.042 193.919 254.075 193.764C254.108 193.609 254.194 193.466 254.32 193.354C254.447 193.242 254.608 193.166 254.784 193.135C254.961 193.104 255.143 193.12 255.309 193.18C255.475 193.241 255.616 193.344 255.715 193.475C255.814 193.607 255.866 193.762 255.864 193.919C255.869 194.023 255.85 194.126 255.808 194.223C255.766 194.319 255.701 194.407 255.618 194.481C255.535 194.554 255.435 194.612 255.326 194.65C255.216 194.689 255.099 194.707 254.981 194.703V194.703Z" fill="white"/>
<path d="M257.669 194.687V192.678H257.023V195.179H259.085V194.712L257.669 194.687Z" fill="white"/>
<path d="M260.728 192.678H259.445V195.179H260.728C261.106 195.179 261.468 195.047 261.735 194.812C262.003 194.578 262.153 194.26 262.153 193.928C262.153 193.597 262.003 193.279 261.735 193.044C261.468 192.809 261.106 192.678 260.728 192.678ZM260.728 194.678H260.129V193.153H260.728C260.849 193.142 260.973 193.153 261.089 193.186C261.205 193.22 261.313 193.274 261.404 193.346C261.495 193.418 261.567 193.506 261.617 193.604C261.667 193.702 261.693 193.808 261.693 193.916C261.693 194.023 261.667 194.129 261.617 194.228C261.567 194.326 261.495 194.414 261.404 194.486C261.313 194.557 261.205 194.612 261.089 194.645C260.973 194.678 260.849 194.69 260.728 194.678Z" fill="white"/>
<path d="M263.427 194.695V194.12H264.729V193.678H263.427V193.136H264.9V192.678H262.781V195.179H264.957V194.72L263.427 194.695Z" fill="white"/>
<path d="M267.338 194.353C267.512 194.289 267.659 194.181 267.762 194.043C267.865 193.905 267.92 193.743 267.918 193.578C267.918 193.028 267.443 192.678 266.692 192.678H265.477V195.179H266.123V194.487H266.73L267.272 195.179H267.965L267.338 194.353ZM266.654 194.012H266.123V193.178H266.654C267.053 193.178 267.253 193.336 267.253 193.611C267.253 193.887 267.053 194.012 266.654 194.012V194.012Z" fill="white"/>
<path d="M277.134 201.289H238.405C237.571 201.289 236.895 201.883 236.895 202.615V203.131C236.895 203.863 237.571 204.457 238.405 204.457H277.134C277.968 204.457 278.644 203.863 278.644 203.131V202.615C278.644 201.883 277.968 201.289 277.134 201.289Z" fill="white"/>
<path d="M346.148 201.289H325.971C325.137 201.289 324.461 201.883 324.461 202.615V203.131C324.461 203.863 325.137 204.457 325.971 204.457H346.148C346.982 204.457 347.658 203.863 347.658 203.131V202.615C347.658 201.883 346.982 201.289 346.148 201.289Z" fill="white"/>
<g opacity="0.2">
<path d="M356.474 141H228.66C228.064 141 227.474 141.103 226.924 141.304C226.374 141.504 225.874 141.798 225.453 142.168C225.032 142.538 224.698 142.977 224.471 143.461C224.244 143.944 224.128 144.462 224.129 144.985V165.101C232.203 170.036 243.289 170.936 253.131 169.102C264.729 166.976 275.236 161.774 286.046 157.506C296.856 153.238 308.721 149.812 320.405 151.571C331.424 153.238 340.819 159.257 350.803 163.709C354.078 165.191 357.503 166.402 361.034 167.327V144.985C361.034 144.46 360.916 143.941 360.686 143.456C360.457 142.972 360.121 142.531 359.697 142.161C359.274 141.791 358.771 141.498 358.218 141.299C357.665 141.099 357.072 140.998 356.474 141Z" fill="white"/>
</g>
<path d="M254.412 246.856H235.555C230.949 246.856 227.215 250.133 227.215 254.176V270.724C227.215 274.766 230.949 278.043 235.555 278.043H254.412C259.018 278.043 262.752 274.766 262.752 270.724V254.176C262.752 250.133 259.018 246.856 254.412 246.856Z" fill="#6276F6"/>
<path d="M248.473 267.222H240.712C240.609 267.222 240.508 267.192 240.427 267.136C240.346 267.08 240.289 267.002 240.265 266.913L237.416 256.91H234.718C234.597 256.91 234.481 256.868 234.395 256.793C234.31 256.718 234.262 256.616 234.262 256.51C234.261 256.457 234.271 256.404 234.294 256.355C234.316 256.306 234.35 256.262 234.392 256.224C234.435 256.187 234.486 256.157 234.542 256.138C234.598 256.118 234.658 256.108 234.718 256.109H237.767C237.869 256.108 237.968 256.138 238.049 256.192C238.13 256.246 238.188 256.323 238.214 256.41L241.063 266.413H248.473C248.599 266.413 248.72 266.457 248.809 266.535C248.898 266.614 248.948 266.72 248.948 266.83C248.948 266.941 248.898 267.047 248.809 267.125C248.72 267.203 248.599 267.247 248.473 267.247V267.222Z" fill="white"/>
<path d="M242.196 270.423C242.998 270.423 243.649 269.852 243.649 269.148C243.649 268.443 242.998 267.872 242.196 267.872C241.393 267.872 240.742 268.443 240.742 269.148C240.742 269.852 241.393 270.423 242.196 270.423Z" fill="#6276F6"/>
<path d="M242.185 267.473C241.809 267.473 241.442 267.57 241.13 267.754C240.817 267.937 240.574 268.197 240.43 268.502C240.286 268.807 240.248 269.142 240.322 269.465C240.395 269.789 240.576 270.086 240.842 270.319C241.107 270.552 241.446 270.711 241.814 270.775C242.183 270.84 242.565 270.807 242.912 270.68C243.259 270.554 243.556 270.34 243.765 270.066C243.973 269.792 244.085 269.47 244.085 269.14C244.085 268.698 243.885 268.274 243.528 267.961C243.172 267.648 242.689 267.473 242.185 267.473ZM242.185 270.024C241.988 270.024 241.795 269.972 241.631 269.876C241.467 269.78 241.339 269.643 241.264 269.483C241.188 269.323 241.168 269.147 241.207 268.978C241.245 268.808 241.34 268.652 241.48 268.529C241.619 268.407 241.797 268.324 241.99 268.29C242.184 268.256 242.384 268.273 242.567 268.34C242.749 268.406 242.905 268.518 243.014 268.662C243.124 268.806 243.182 268.975 243.182 269.148C243.18 269.38 243.074 269.601 242.888 269.765C242.701 269.929 242.449 270.021 242.185 270.024V270.024Z" fill="white"/>
<path d="M250.27 270.423C251.073 270.423 251.723 269.852 251.723 269.148C251.723 268.443 251.073 267.872 250.27 267.872C249.467 267.872 248.816 268.443 248.816 269.148C248.816 269.852 249.467 270.423 250.27 270.423Z" fill="#6276F6"/>
<path d="M250.267 267.473C249.891 267.473 249.524 267.57 249.212 267.754C248.899 267.937 248.656 268.197 248.512 268.502C248.368 268.807 248.33 269.142 248.404 269.465C248.477 269.789 248.658 270.086 248.924 270.319C249.189 270.552 249.528 270.711 249.896 270.775C250.265 270.84 250.647 270.807 250.994 270.68C251.341 270.554 251.638 270.34 251.847 270.066C252.056 269.792 252.167 269.47 252.167 269.14C252.167 268.698 251.967 268.274 251.61 267.961C251.254 267.648 250.771 267.473 250.267 267.473ZM250.267 270.024C250.07 270.024 249.877 269.972 249.713 269.876C249.549 269.78 249.421 269.643 249.346 269.483C249.27 269.323 249.25 269.147 249.289 268.978C249.327 268.808 249.422 268.652 249.562 268.529C249.701 268.407 249.879 268.324 250.072 268.29C250.266 268.256 250.467 268.273 250.649 268.34C250.831 268.406 250.987 268.518 251.096 268.662C251.206 268.806 251.264 268.975 251.264 269.148C251.271 269.265 251.25 269.381 251.202 269.49C251.155 269.599 251.082 269.698 250.988 269.781C250.893 269.863 250.781 269.927 250.657 269.969C250.533 270.011 250.4 270.03 250.267 270.024Z" fill="white"/>
<path d="M251.524 265.371H240.457C240.331 265.371 240.21 265.327 240.121 265.249C240.032 265.171 239.982 265.065 239.982 264.954C239.982 264.844 240.032 264.738 240.121 264.66C240.21 264.581 240.331 264.537 240.457 264.537H251.134L252.35 258.535H238.405C238.283 258.533 238.167 258.489 238.082 258.413C237.997 258.336 237.949 258.234 237.949 258.127C237.949 258.021 237.997 257.919 238.083 257.844C238.168 257.769 238.284 257.727 238.405 257.727H252.901C252.968 257.726 253.034 257.739 253.095 257.763C253.156 257.788 253.21 257.823 253.253 257.868C253.295 257.915 253.327 257.968 253.344 258.025C253.362 258.083 253.367 258.143 253.357 258.202L251.97 265.013C251.959 265.11 251.907 265.2 251.825 265.266C251.742 265.332 251.635 265.37 251.524 265.371V265.371Z" fill="white"/>
<path d="M343.041 252.333H278.113C276.135 252.333 274.531 253.74 274.531 255.476V256.718C274.531 258.454 276.135 259.861 278.113 259.861H343.041C345.019 259.861 346.622 258.454 346.622 256.718V255.476C346.622 253.74 345.019 252.333 343.041 252.333Z" fill="#E0E0E0"/>
<path d="M307.39 267.131H278.113C276.135 267.131 274.531 268.538 274.531 270.274V271.516C274.531 273.252 276.135 274.659 278.113 274.659H307.39C309.367 274.659 310.971 273.252 310.971 271.516V270.274C310.971 268.538 309.367 267.131 307.39 267.131Z" fill="#E0E0E0"/>
<path d="M376.571 235.077C376.571 235.202 339.058 235.294 292.796 235.294C246.534 235.294 209.012 235.202 209.012 235.077C209.012 234.952 246.515 234.86 292.796 234.86C339.077 234.86 376.571 234.994 376.571 235.077Z" fill="#E0E0E0"/>
<path d="M332.921 290.548H254.438C245.933 290.548 239.039 296.598 239.039 304.061V309.372C239.039 316.835 245.933 322.885 254.438 322.885H332.921C341.426 322.885 348.32 316.835 348.32 309.372V304.061C348.32 296.598 341.426 290.548 332.921 290.548Z" fill="#6276F6"/>
<path d="M287.915 302.544H284.191V309.68H286.471V307.821H287.896C290.119 307.821 291.506 306.804 291.506 305.187C291.506 303.569 290.138 302.544 287.915 302.544ZM287.773 306.229H286.471V304.136H287.754C288.704 304.136 289.188 304.52 289.188 305.187C289.188 305.854 288.723 306.229 287.773 306.229Z" fill="white"/>
<path d="M297.118 302.544H294.848L291.219 309.68H293.565L294.211 308.296H297.65L298.286 309.68H300.718L297.118 302.544ZM294.924 306.771L295.968 304.486L297.013 306.771H294.924Z" fill="white"/>
<path d="M306.107 302.544L304.207 305.378L302.307 302.544H299.875L302.981 307.096V309.68H305.28V307.121L308.396 302.544H306.107Z" fill="white"/>
<path d="M236.305 110.635C237.209 107.289 234.85 103.933 231.036 103.14C227.223 102.347 223.399 104.417 222.495 107.764C221.592 111.11 223.951 114.466 227.764 115.259C231.578 116.052 235.402 113.982 236.305 110.635Z" fill="#6276F6"/>
<path d="M316.763 105.995H268.829C267.392 105.995 266.227 107.018 266.227 108.279V109.171C266.227 110.433 267.392 111.455 268.829 111.455H316.763C318.201 111.455 319.366 110.433 319.366 109.171V108.279C319.366 107.018 318.201 105.995 316.763 105.995Z" fill="#E0E0E0"/>
<path d="M353.298 332.205H244.824V338.566H353.298V332.205Z" fill="#263238"/>
<path d="M249.957 335.381C250.907 335.664 263.617 335.664 263.617 357.681C263.617 379.697 262.981 407.016 276.318 407.85C289.655 408.683 359.846 407.85 359.846 407.85V352.621C359.846 348.193 357.847 343.945 354.286 340.807C350.725 337.67 345.893 335.899 340.847 335.881L249.957 335.381Z" fill="#FAFAFA"/>
<path d="M249.955 335.381L302.714 335.523L329.484 335.606H336.827C339.366 335.52 341.909 335.628 344.426 335.931C347.01 336.364 349.467 337.255 351.646 338.549C353.876 339.896 355.764 341.633 357.193 343.651C358.651 345.72 359.587 348.04 359.939 350.453C360.078 351.675 360.132 352.902 360.1 354.13V357.831C360.1 362.794 360.1 367.851 360.1 373.003V408.016H359.863C335.316 408.275 311.967 408.467 290.755 408.325C288.104 408.325 285.482 408.267 282.899 408.217C280.341 408.208 277.786 408.085 275.242 407.85C273.986 407.611 272.807 407.126 271.794 406.433C270.836 405.725 270.003 404.896 269.324 403.973C268.062 402.157 267.103 400.192 266.474 398.138C265.31 394.272 264.553 390.321 264.213 386.333C263.833 382.507 263.662 378.831 263.558 375.313C263.358 368.285 263.558 361.933 263.425 356.364C263.292 350.795 262.313 346.002 260.357 342.484C259.508 340.921 258.361 339.497 256.965 338.274C255.912 337.407 254.702 336.7 253.384 336.181C252.271 335.808 251.119 335.529 249.945 335.348L250.848 335.473C251.73 335.607 252.593 335.825 253.422 336.123C254.759 336.635 255.988 337.339 257.06 338.207C258.487 339.429 259.66 340.859 260.528 342.434C262.532 345.977 263.548 350.812 263.7 356.381C263.852 361.949 263.7 368.31 263.909 375.329C264.023 378.839 264.194 382.515 264.593 386.325C264.938 390.29 265.698 394.22 266.864 398.063C267.481 400.078 268.422 402.006 269.657 403.79C270.313 404.678 271.117 405.476 272.041 406.157C273.002 406.814 274.119 407.272 275.309 407.5C277.731 407.783 280.324 407.766 282.908 407.841C285.492 407.916 288.104 407.925 290.755 407.941C311.967 408.066 335.307 407.858 359.853 407.6L359.606 407.816V404.915C359.606 393.986 359.606 383.307 359.606 373.003C359.606 367.851 359.606 362.794 359.606 357.831V354.13C359.639 352.919 359.585 351.708 359.445 350.503C358.956 347.041 357.229 343.803 354.512 341.257C351.794 338.71 348.227 336.986 344.322 336.331C341.842 336.03 339.338 335.918 336.836 335.998L329.531 335.956L302.933 335.773L249.955 335.381Z" fill="#263238"/>
<path d="M276.641 407.849C276.641 407.849 287.622 407.849 289.94 393.636C292.742 376.696 289.94 361.865 304.863 361.307C319.787 360.748 359.808 361.307 359.808 361.307V407.849H276.641Z" fill="#E0E0E0"/>
<path d="M303.027 361.474C303.027 361.474 315.063 360.19 315.063 377.746C315.063 395.303 315.386 406.924 328.723 408.225C342.06 409.525 424.002 408.225 424.002 408.225C424.002 408.225 410.978 402.831 410.028 386.95C409.078 371.069 405.279 361.365 392.245 361.057C379.212 360.748 303.027 361.474 303.027 361.474Z" fill="#FAFAFA"/>
<path d="M303.029 361.474H303.836L306.211 361.432L315.331 361.307L348.92 360.99L372.137 360.849H385.075C387.298 360.849 389.559 360.849 391.848 360.907C394.202 360.921 396.533 361.314 398.726 362.066C400.945 362.934 402.87 364.292 404.311 366.009C405.752 367.76 406.865 369.702 407.608 371.761C409.017 376.013 409.858 380.394 410.115 384.816C410.201 385.941 410.267 387.075 410.4 388.151L410.59 389.818L410.951 391.485L411.132 392.319L411.388 393.152L411.93 394.82C412.355 395.905 412.856 396.965 413.431 397.996C415.734 402.229 419.461 405.74 424.108 408.058L424.944 408.458H423.994H421.733C399.742 408.775 378.787 408.983 359.731 408.983C350.231 408.983 341.15 408.942 332.677 408.625C330.581 408.581 328.493 408.383 326.435 408.033C324.442 407.637 322.59 406.818 321.04 405.649C319.589 404.491 318.444 403.068 317.687 401.48C316.957 399.978 316.419 398.41 316.081 396.804C315.482 393.835 315.139 390.831 315.055 387.817C314.932 384.966 314.922 382.282 314.922 379.772C314.922 378.514 314.922 377.271 314.856 376.138C314.856 375.562 314.856 374.987 314.77 374.429C314.685 373.87 314.609 373.337 314.542 372.803L314.428 371.969L314.229 371.211C314.105 370.711 313.982 370.227 313.858 369.752L313.336 368.393C313.241 368.176 313.155 367.96 313.07 367.751C312.984 367.543 312.842 367.351 312.737 367.151C312.016 365.723 310.938 364.455 309.584 363.441C308.6 362.682 307.444 362.114 306.192 361.774C305.43 361.556 304.638 361.427 303.836 361.39C303.634 361.379 303.431 361.379 303.229 361.39H303.02C303.089 361.384 303.159 361.384 303.229 361.39C303.434 361.381 303.64 361.381 303.846 361.39C304.652 361.405 305.452 361.52 306.221 361.732C307.492 362.048 308.671 362.599 309.679 363.35C311.065 364.362 312.17 365.64 312.908 367.084C314.808 370.277 315.226 374.737 315.198 379.739C315.198 382.24 315.198 384.933 315.369 387.775C315.463 390.805 315.821 393.823 316.442 396.804C316.776 398.384 317.308 399.928 318.029 401.405C318.768 402.947 319.883 404.327 321.296 405.449C322.801 406.584 324.602 407.375 326.54 407.75C328.574 408.088 330.636 408.28 332.705 408.325C341.16 408.625 350.212 408.633 359.74 408.642C378.796 408.642 399.742 408.4 421.733 408.083H424.004L423.899 408.491C419.149 406.131 415.342 402.545 412.994 398.221C412.411 397.176 411.901 396.101 411.464 395.003L410.913 393.336L410.657 392.502L410.476 391.668L410.115 390.001L409.916 388.334C409.783 387.192 409.716 386.075 409.631 384.999C409.386 380.611 408.557 376.264 407.161 372.044C406.44 370.024 405.353 368.118 403.941 366.401C402.55 364.739 400.69 363.423 398.545 362.583C396.408 361.847 394.134 361.463 391.839 361.449C389.559 361.399 387.298 361.391 385.075 361.382H372.137L348.92 361.466L315.331 361.657H306.211H303.029V361.474Z" fill="#263238"/>
<path d="M306.199 361.441C306.199 361.491 305.249 361.441 303.539 361.616C301.136 361.908 298.901 362.863 297.156 364.342C294.914 366.176 293.252 369.16 292.406 372.628C291.561 376.096 291.456 380.056 291.285 384.183C291.23 388.084 290.718 391.97 289.756 395.779C289.264 397.43 288.606 399.04 287.789 400.589C287.109 401.956 286.238 403.244 285.196 404.424C283.663 406.155 281.453 407.325 278.993 407.708C278.335 407.812 277.667 407.866 276.998 407.867C276.768 407.89 276.535 407.89 276.305 407.867C276.532 407.821 276.765 407.799 276.998 407.8C277.656 407.758 278.31 407.677 278.955 407.558C279.968 407.361 280.944 407.038 281.852 406.599C283.037 405.995 284.079 405.197 284.921 404.249C285.922 403.076 286.761 401.802 287.419 400.455C288.216 398.923 288.852 397.329 289.319 395.695C290.248 391.911 290.744 388.054 290.801 384.183C291.01 380.064 291.067 376.088 291.969 372.553C292.872 369.019 294.581 365.959 296.918 364.125C298.725 362.626 301.04 361.686 303.511 361.449C303.892 361.403 304.276 361.378 304.66 361.374C304.942 361.361 305.224 361.361 305.506 361.374C305.739 361.377 305.971 361.399 306.199 361.441V361.441Z" fill="#263238"/>
<path d="M346.173 348.144C346.173 348.261 330.774 348.361 311.804 348.361C292.834 348.361 277.426 348.261 277.426 348.144C277.426 348.028 292.815 347.928 311.804 347.928C330.793 347.928 346.173 348.019 346.173 348.144Z" fill="#E0E0E0"/>
<path d="M347.589 357.114C347.589 357.239 332.713 357.331 314.342 357.331C295.97 357.331 281.094 357.239 281.094 357.114C281.094 356.989 295.97 356.897 314.342 356.897C332.713 356.897 347.589 356.998 347.589 357.114Z" fill="#E0E0E0"/>
<path d="M394.46 374.562C394.46 374.688 379.071 374.779 360.091 374.779C341.112 374.779 325.723 374.688 325.723 374.562C325.723 374.437 341.102 374.346 360.091 374.346C379.081 374.346 394.46 374.446 394.46 374.562Z" fill="#E0E0E0"/>
<path d="M395.316 385.033C395.316 385.158 381.191 385.25 363.788 385.25C346.385 385.25 332.25 385.158 332.25 385.033C332.25 384.908 346.366 384.816 363.788 384.816C381.21 384.816 395.316 384.916 395.316 385.033Z" fill="#E0E0E0"/>
<path d="M337.871 151.521H331.184C329.531 151.521 328.191 152.696 328.191 154.146V160.015C328.191 161.466 329.531 162.641 331.184 162.641H337.871C339.524 162.641 340.864 161.466 340.864 160.015V154.146C340.864 152.696 339.524 151.521 337.871 151.521Z" fill="white"/>
<path d="M103.722 139.308L97.4329 138.641C92.4199 141.576 86.3371 142.759 80.3803 141.958C74.4235 141.157 69.0235 138.43 65.242 134.312C61.4606 130.194 59.5711 124.984 59.945 119.705C60.3189 114.427 62.9292 109.462 67.2627 105.787C71.5963 102.112 77.3396 99.9926 83.3636 99.8452C89.3876 99.6977 95.2566 101.533 99.8167 104.991C104.377 108.448 107.298 113.277 108.007 118.529C108.715 123.781 107.16 129.076 103.646 133.372V133.372L103.722 139.308Z" fill="white"/>
<path d="M103.721 139.308C103.713 139.175 103.713 139.041 103.721 138.908C103.721 138.633 103.721 138.249 103.721 137.757C103.721 136.74 103.673 135.256 103.626 133.356L103.768 133.414C103.76 133.421 103.751 133.427 103.74 133.431C103.729 133.435 103.718 133.437 103.706 133.437C103.695 133.437 103.683 133.435 103.673 133.431C103.662 133.427 103.653 133.421 103.645 133.414C103.633 133.401 103.627 133.385 103.627 133.368C103.627 133.352 103.633 133.335 103.645 133.322C105.903 130.526 107.354 127.291 107.872 123.894C108.196 121.675 108.128 119.426 107.672 117.225C107.132 114.722 106.076 112.326 104.557 110.155C102.864 107.765 100.653 105.688 98.0494 104.045C95.2448 102.25 92.0187 101.028 88.6071 100.468C84.977 99.8757 81.2406 100.018 77.6828 100.885C73.944 101.798 70.5249 103.518 67.7369 105.887C66.2917 107.073 65.0158 108.408 63.9372 109.864C63.4527 110.605 62.9873 111.339 62.5408 112.098L61.9708 113.265L61.6858 113.848L61.4769 114.449C60.3233 117.56 59.9983 120.863 60.5269 124.102C61.0163 127.118 62.2657 130 64.1842 132.539C65.9722 134.902 68.2738 136.934 70.9572 138.516C73.388 139.934 76.0915 140.954 78.9367 141.525L80.9316 141.834C81.5775 141.917 82.233 141.934 82.8314 141.984C84.0598 142.053 85.2925 142.033 86.5172 141.926C90.4101 141.603 94.1556 140.456 97.432 138.583C97.4409 138.579 97.4506 138.577 97.4605 138.577C97.4703 138.577 97.4801 138.579 97.489 138.583L102.125 139.116L103.341 139.266L103.768 139.325H103.369L102.115 139.208L97.432 138.716H97.489C94.2322 140.648 90.4838 141.848 86.5742 142.209C85.3376 142.325 84.0922 142.353 82.8504 142.292C82.2045 142.242 81.5395 142.226 80.8746 142.142L78.8607 141.842C75.9666 141.279 73.2141 140.256 70.7387 138.824C68.0115 137.224 65.671 135.168 63.8517 132.772C61.862 130.177 60.5633 127.223 60.0519 124.127C59.5036 120.83 59.8287 117.467 61.0019 114.299L61.2204 113.69L61.5054 113.098C61.6953 112.706 61.8853 112.264 62.0848 111.914C62.5028 111.139 63.0347 110.389 63.5097 109.638C64.5869 108.159 65.8626 106.799 67.3095 105.587C70.1661 103.179 73.6635 101.437 77.4833 100.518C81.105 99.6455 84.9054 99.5058 88.5976 100.11C92.0668 100.686 95.345 101.937 98.1919 103.77C100.847 105.451 103.094 107.579 104.803 110.03C106.312 112.226 107.354 114.644 107.881 117.166C108.34 119.398 108.394 121.68 108.043 123.927C107.508 127.339 106.023 130.583 103.721 133.372L103.597 133.272C103.605 133.265 103.615 133.259 103.625 133.255C103.636 133.251 103.647 133.249 103.659 133.249C103.67 133.249 103.682 133.251 103.692 133.255C103.703 133.259 103.713 133.265 103.721 133.272C103.725 133.289 103.725 133.306 103.721 133.322C103.721 135.248 103.721 136.74 103.721 137.766C103.721 138.257 103.721 138.599 103.721 138.899C103.721 139.2 103.721 139.308 103.721 139.308Z" fill="#263238"/>
<path d="M73.4258 122.343L76.4466 119.5L82.6592 124.027L94.0964 113.682L97.1077 116.341L82.4122 129.329L73.4258 122.343Z" fill="#6276F6"/>
<path d="M126.579 112.331C128.023 104.094 127.595 97.0917 145.882 98.8173L146.832 98.8757C156.939 100.043 161.461 108.238 159.846 117.074L156.331 148.436L156.16 154.922L132.079 156.839L132.582 143.151C132.582 143.151 126.484 140.65 123.53 132.622C122.133 128.67 125.23 120.034 126.579 112.331Z" fill="#FFBF9D"/>
<path d="M132.58 143.134C137.117 143.415 141.65 142.547 145.641 140.633C145.641 140.633 142.241 146.81 132.57 145.418L132.58 143.134Z" fill="#FF9A6C"/>
<path d="M130.357 120.867C130.325 121.185 130.437 121.501 130.667 121.747C130.898 121.994 131.23 122.151 131.592 122.184C131.768 122.209 131.948 122.202 132.122 122.165C132.295 122.127 132.458 122.059 132.6 121.965C132.743 121.871 132.863 121.752 132.952 121.617C133.042 121.481 133.099 121.331 133.121 121.176C133.151 120.857 133.039 120.541 132.808 120.294C132.578 120.047 132.248 119.888 131.886 119.85C131.709 119.827 131.529 119.835 131.356 119.873C131.182 119.912 131.02 119.981 130.877 120.076C130.735 120.17 130.615 120.289 130.526 120.425C130.436 120.561 130.379 120.711 130.357 120.867V120.867Z" fill="#263238"/>
<path d="M128.325 116.699C128.487 116.866 129.598 116.249 131.099 116.349C132.6 116.449 133.635 117.183 133.816 117.024C133.996 116.866 133.749 116.666 133.293 116.324C132.678 115.889 131.925 115.63 131.137 115.582C130.356 115.531 129.577 115.701 128.914 116.066C128.42 116.299 128.24 116.582 128.325 116.699Z" fill="#263238"/>
<path d="M144.407 122.051C144.378 122.369 144.491 122.685 144.724 122.931C144.956 123.177 145.289 123.334 145.651 123.368C145.827 123.39 146.007 123.382 146.179 123.343C146.351 123.304 146.513 123.236 146.655 123.143C146.797 123.049 146.917 122.931 147.007 122.797C147.097 122.662 147.156 122.514 147.181 122.359C147.208 122.041 147.093 121.726 146.861 121.48C146.629 121.235 146.297 121.078 145.936 121.042C145.76 121.017 145.58 121.024 145.407 121.062C145.233 121.099 145.07 121.167 144.928 121.261C144.785 121.356 144.665 121.474 144.576 121.61C144.486 121.745 144.429 121.895 144.407 122.051V122.051Z" fill="#263238"/>
<path d="M143.033 117.841C143.194 118.016 144.315 117.399 145.807 117.499C147.298 117.599 148.352 118.332 148.533 118.174C148.713 118.016 148.466 117.807 148.01 117.474C147.41 117.028 146.666 116.757 145.883 116.698C145.103 116.648 144.325 116.814 143.66 117.174C143.147 117.532 142.966 117.765 143.033 117.841Z" fill="#263238"/>
<path d="M136.789 127.261C136.02 126.981 135.211 126.793 134.385 126.703C134.005 126.636 133.654 126.553 133.606 126.319C133.597 125.969 133.713 125.625 133.939 125.336C134.366 124.544 134.822 123.718 135.288 122.835C137.188 119.292 138.546 116.366 138.385 116.299C138.223 116.232 136.57 119.058 134.699 122.601L133.397 125.102C133.119 125.492 133.011 125.957 133.093 126.411C133.138 126.534 133.214 126.646 133.316 126.739C133.419 126.831 133.544 126.902 133.682 126.945C133.888 127.007 134.102 127.046 134.319 127.061C135.131 127.211 135.959 127.278 136.789 127.261V127.261Z" fill="#263238"/>
<path d="M141.133 128.453C140.886 128.453 140.762 129.845 139.29 130.771C137.817 131.696 136.089 131.429 136.06 131.604C136.032 131.78 136.43 131.905 137.152 131.971C138.106 132.045 139.058 131.821 139.841 131.338C140.594 130.874 141.111 130.171 141.285 129.379C141.399 128.812 141.247 128.445 141.133 128.453Z" fill="#263238"/>
<path d="M143.088 112.664C143.202 113.031 144.712 112.956 146.46 113.256C148.208 113.556 149.595 114.089 149.852 113.756C149.966 113.614 149.747 113.256 149.206 112.872C148.477 112.395 147.631 112.075 146.736 111.938C145.843 111.783 144.922 111.817 144.047 112.039C143.383 112.23 143.031 112.53 143.088 112.664Z" fill="#263238"/>
<path d="M129.19 112.881C129.427 113.198 130.491 112.956 131.736 113.022C132.98 113.089 134.006 113.364 134.281 113.072C134.395 112.922 134.281 112.614 133.816 112.306C133.231 111.922 132.523 111.709 131.793 111.697C131.062 111.658 130.337 111.824 129.722 112.172C129.256 112.431 129.085 112.731 129.19 112.881Z" fill="#263238"/>
<path d="M157.614 125.31C157.651 124.996 157.76 124.691 157.936 124.416C158.111 124.14 158.349 123.898 158.634 123.705C158.919 123.513 159.246 123.373 159.595 123.295C159.944 123.217 160.307 123.202 160.663 123.251C162.468 123.518 164.463 124.552 164.026 127.844C163.323 133.68 156.787 131.871 156.797 131.696C156.806 131.521 157.281 127.753 157.614 125.31Z" fill="#FFBF9D"/>
<path d="M158.507 129.637C158.507 129.637 158.611 129.72 158.801 129.812C159.065 129.938 159.373 129.974 159.666 129.912C160.127 129.714 160.519 129.411 160.8 129.034C161.08 128.657 161.24 128.22 161.262 127.77C161.343 127.271 161.291 126.763 161.11 126.286C161.067 126.102 160.974 125.929 160.838 125.784C160.702 125.639 160.528 125.525 160.331 125.452C160.202 125.408 160.059 125.405 159.929 125.445C159.798 125.485 159.688 125.564 159.618 125.669C159.504 125.819 159.533 125.944 159.504 125.944C159.476 125.944 159.371 125.836 159.447 125.602C159.504 125.46 159.615 125.34 159.761 125.26C159.857 125.207 159.965 125.171 160.078 125.156C160.19 125.14 160.305 125.144 160.416 125.169C160.685 125.24 160.927 125.371 161.121 125.549C161.314 125.727 161.451 125.947 161.518 126.186C161.739 126.719 161.811 127.291 161.727 127.853C161.547 129.02 160.72 130.062 159.732 130.221C159.547 130.248 159.357 130.239 159.177 130.194C158.996 130.149 158.829 130.07 158.687 129.962C158.497 129.779 158.478 129.645 158.507 129.637Z" fill="#FF9A6C"/>
<path d="M162.98 119.35C162.429 121.017 162.628 123.81 160.918 123.426C157.536 122.684 158.344 128.77 156.719 128.178C155.095 127.586 153.699 125.852 153.604 122.109C153.471 117.349 155.656 113.915 153.518 108.471C152.839 107.384 151.852 106.469 150.652 105.814C149.452 105.16 148.08 104.789 146.669 104.736C145.246 104.708 143.838 104.999 142.58 105.583C141.321 106.167 140.253 107.023 139.478 108.071C139.174 106.403 138.253 103.902 136.562 103.069C135.722 102.661 134.763 102.481 133.806 102.551C132.849 102.62 131.937 102.937 131.185 103.461C130.462 104.015 129.991 104.78 129.86 105.615C129.729 106.45 129.947 107.299 130.473 108.004C130.082 108.107 129.665 108.096 129.282 107.975C128.899 107.853 128.57 107.627 128.345 107.329C128.313 107.716 128.372 108.105 128.517 108.472C128.662 108.839 128.892 109.176 129.19 109.463C128.491 109.307 127.88 108.934 127.471 108.412L127.984 110.48C125.134 110.547 122.332 108.121 121.543 105.962C120.337 102.685 121.268 99.3924 123.348 96.4747C124.37 95.0046 125.796 93.7832 127.496 92.9224C129.195 92.0616 131.114 91.589 133.075 91.5479C136.989 91.5479 140.276 93.2151 141.786 96.3747C144.323 94.7991 149.471 94.2489 152.312 95.3826C153.726 95.9646 154.947 96.8547 155.858 97.9681C156.77 99.0816 157.341 100.381 157.517 101.743C158.429 101.462 159.409 101.399 160.357 101.56C161.305 101.721 162.187 102.101 162.913 102.66L163.274 102.935C164.273 103.769 165.014 104.811 165.427 105.964C165.841 107.118 165.914 108.345 165.639 109.53C165.43 110.48 165.06 111.464 164.832 112.231C164.148 114.556 162.98 119.35 162.98 119.35Z" fill="#263238"/>
<path d="M127.833 107.228L127.605 107.07C127.401 106.903 127.214 106.722 127.045 106.528C126.425 105.797 126.041 104.933 125.933 104.027C125.836 103.356 125.905 102.674 126.134 102.029C126.364 101.383 126.749 100.788 127.263 100.284C127.895 99.6654 128.688 99.1906 129.575 98.9002C130.462 98.6098 131.416 98.5125 132.355 98.6167C133.322 98.7484 134.244 99.0673 135.053 99.5504C135.805 99.9876 136.475 100.525 137.038 101.143C138.002 102.184 138.699 103.395 139.081 104.694C139.343 105.561 139.455 106.457 139.413 107.353C139.413 107.67 139.413 107.912 139.337 108.079C139.261 108.245 139.29 108.329 139.271 108.329C139.375 107.12 139.244 105.905 138.881 104.736C138.481 103.474 137.782 102.301 136.829 101.293C135.71 100.028 134.101 99.1678 132.307 98.8752C131.414 98.7788 130.506 98.8732 129.663 99.1504C128.819 99.4276 128.065 99.8794 127.463 100.467C126.966 100.946 126.592 101.511 126.364 102.127C126.137 102.742 126.061 103.393 126.142 104.035C126.212 104.911 126.539 105.755 127.092 106.486C127.586 106.978 127.9 107.203 127.833 107.228Z" fill="#455A64"/>
<path d="M126.57 109.846C126.496 109.753 126.429 109.656 126.371 109.555C126.247 109.363 126.067 109.079 125.848 108.721C125.202 107.684 124.676 106.592 124.281 105.461C124.011 104.671 123.861 103.852 123.834 103.027C123.809 102.077 124.006 101.132 124.414 100.251C124.894 99.2764 125.69 98.4472 126.703 97.8669C127.786 97.2473 129.032 96.8827 130.322 96.8081C131.618 96.745 132.914 96.9269 134.122 97.3417C135.235 97.7143 136.276 98.2344 137.209 98.8839C138.842 99.9477 140.03 101.453 140.591 103.169C140.922 104.338 140.842 105.567 140.363 106.695C140.227 106.987 140.059 107.266 139.86 107.529C139.717 107.704 139.632 107.796 139.632 107.796C139.866 107.419 140.073 107.029 140.249 106.628C140.676 105.519 140.712 104.322 140.354 103.194C139.788 101.523 138.617 100.06 137.019 99.0256C135.144 97.6866 132.787 96.9773 130.37 97.0249C129.124 97.1 127.922 97.4592 126.884 98.0669C125.913 98.6158 125.149 99.4049 124.689 100.334C124.284 101.184 124.083 102.098 124.1 103.019C124.118 103.825 124.252 104.626 124.499 105.403C124.87 106.526 125.35 107.62 125.934 108.671L126.409 109.505C126.476 109.613 126.53 109.728 126.57 109.846V109.846Z" fill="#455A64"/>
<path d="M160.594 115.565C160.594 115.565 161.211 115.132 162.019 114.281C163.079 113.185 163.809 111.872 164.141 110.464C164.473 109.055 164.397 107.596 163.919 106.22C163.558 105.161 163.14 104.553 163.187 104.553C163.315 104.671 163.42 104.806 163.501 104.953C163.75 105.341 163.956 105.748 164.118 106.17C164.773 107.787 164.829 109.545 164.278 111.192C163.727 112.838 162.597 114.29 161.05 115.34C160.912 115.435 160.758 115.511 160.594 115.565V115.565Z" fill="#455A64"/>
<path d="M154.523 115.399C154.523 115.399 154.856 115.265 155.378 114.948C156.118 114.507 156.701 113.892 157.06 113.173L157.345 112.614L157.278 113.223C157.193 114.056 157.098 114.998 156.993 116.024L156.775 115.915C157.62 115.405 158.359 114.77 158.96 114.04C159.642 113.205 160.123 112.257 160.375 111.254C160.626 110.251 160.643 109.213 160.423 108.204C160.223 107.364 159.904 106.549 159.473 105.778C159.524 105.821 159.566 105.872 159.596 105.928C159.711 106.068 159.813 106.216 159.9 106.37C160.227 106.938 160.47 107.541 160.622 108.163C160.845 109.092 160.874 110.05 160.708 110.989C160.503 112.023 160.06 113.011 159.407 113.891C158.754 114.771 157.904 115.525 156.908 116.107L156.651 116.257V115.99C156.775 114.965 156.889 114.023 156.984 113.198L157.202 113.248C156.811 113.988 156.18 114.611 155.388 115.04C155.171 115.151 154.946 115.249 154.713 115.332C154.654 115.361 154.59 115.384 154.523 115.399Z" fill="#455A64"/>
<path d="M152.672 103.077C152.286 102.437 151.76 101.87 151.124 101.41C150.427 100.916 149.607 100.573 148.73 100.409C147.653 100.233 146.542 100.323 145.519 100.668C144.489 100.999 143.567 101.546 142.831 102.26C142.227 102.843 141.738 103.51 141.387 104.236C141.083 104.916 140.839 105.615 140.656 106.328C140.62 106.132 140.62 105.932 140.656 105.736C140.77 105.207 140.948 104.69 141.188 104.194C141.529 103.439 142.018 102.742 142.632 102.135C143.389 101.387 144.345 100.814 145.415 100.467C146.491 100.11 147.66 100.026 148.787 100.226C149.699 100.399 150.548 100.769 151.257 101.301C151.733 101.64 152.13 102.056 152.425 102.527C152.509 102.656 152.576 102.793 152.625 102.935C152.663 103.018 152.682 103.077 152.672 103.077Z" fill="#455A64"/>
<path d="M151.115 98.6089C150.527 98.3463 149.909 98.1395 149.272 97.992C147.717 97.6941 146.093 97.8953 144.693 98.5588C143.316 99.2529 142.193 100.276 141.454 101.51C140.874 102.46 140.694 103.119 140.637 103.102C140.64 102.942 140.676 102.784 140.741 102.635C140.875 102.22 141.05 101.815 141.264 101.427C141.98 100.136 143.126 99.0659 144.55 98.3588C146.006 97.6751 147.699 97.4909 149.3 97.8419C149.78 97.9566 150.24 98.1277 150.668 98.3504C150.831 98.4154 150.982 98.5026 151.115 98.6089V98.6089Z" fill="#455A64"/>
<path d="M129.675 374.671L130.34 390.701C130.34 390.701 111.996 396.679 111.797 399.655H147.268L147.382 374.646L129.675 374.671Z" fill="#263238"/>
<path d="M168.858 375.229L169.533 391.268C169.533 391.268 151.18 397.245 150.98 400.221H186.451L186.575 375.212L168.858 375.229Z" fill="#263238"/>
<path d="M141.311 389.343C141.643 389.442 141.923 389.644 142.098 389.911C142.272 390.178 142.33 390.492 142.261 390.793C142.209 390.992 142.099 391.175 141.942 391.324C141.784 391.473 141.585 391.583 141.363 391.643C141.142 391.703 140.906 391.71 140.68 391.665C140.454 391.62 140.246 391.524 140.076 391.385C139.901 391.23 139.776 391.037 139.713 390.825C139.651 390.614 139.653 390.392 139.719 390.181C139.786 389.97 139.914 389.779 140.092 389.626C140.27 389.473 140.49 389.364 140.732 389.31C140.956 389.263 141.193 389.29 141.397 389.385L141.311 389.343Z" fill="#E0E0E0"/>
<path d="M183.982 390.551C184.325 390.64 184.618 390.838 184.804 391.106C184.99 391.374 185.056 391.693 184.989 392.001C184.936 392.2 184.825 392.382 184.666 392.531C184.507 392.68 184.307 392.79 184.085 392.85C183.864 392.909 183.628 392.917 183.401 392.872C183.175 392.827 182.966 392.731 182.795 392.593C182.62 392.438 182.495 392.245 182.432 392.033C182.37 391.822 182.372 391.6 182.438 391.389C182.505 391.179 182.633 390.987 182.811 390.834C182.989 390.681 183.209 390.572 183.45 390.518C183.675 390.471 183.911 390.498 184.115 390.593L183.982 390.551Z" fill="#E0E0E0"/>
<path d="M147.266 399.63L147.162 397.129L113.192 398.104C113.192 398.104 111.615 398.704 111.796 399.68L147.266 399.63Z" fill="#263238"/>
<path d="M129.73 390.543C129.73 390.693 130.604 390.76 131.45 391.252C132.295 391.743 132.761 392.377 132.922 392.319C133.084 392.26 132.818 391.377 131.773 390.801C130.728 390.226 129.73 390.401 129.73 390.543Z" fill="white"/>
<path d="M126.047 391.893C126.047 392.043 126.759 392.302 127.348 392.944C127.937 393.585 128.108 394.261 128.298 394.261C128.488 394.261 128.583 393.427 127.833 392.593C127.082 391.76 126.056 391.751 126.047 391.893Z" fill="white"/>
<path d="M123.936 395.803C124.097 395.803 124.335 395.077 123.888 394.244C123.442 393.41 122.634 393.077 122.558 393.21C122.482 393.344 122.986 393.777 123.347 394.469C123.708 395.161 123.765 395.786 123.936 395.803Z" fill="white"/>
<path d="M168.888 391.119C168.888 391.277 169.762 391.344 170.607 391.827C171.453 392.311 171.918 392.953 172.08 392.894C172.241 392.836 171.975 391.961 170.93 391.385C169.885 390.81 168.85 390.969 168.888 391.119Z" fill="white"/>
<path d="M165.164 392.477C165.164 392.618 165.877 392.877 166.465 393.519C167.054 394.161 167.225 394.844 167.415 394.836C167.605 394.828 167.7 394.002 166.95 393.169C166.199 392.335 165.174 392.327 165.164 392.477Z" fill="white"/>
<path d="M163.056 396.387C163.218 396.387 163.455 395.653 163.056 394.828C162.657 394.003 161.802 393.661 161.726 393.786C161.65 393.911 162.163 394.361 162.515 395.045C162.866 395.728 162.885 396.37 163.056 396.387Z" fill="white"/>
<path d="M130.072 386.875C130.148 387.008 130.946 386.8 131.972 386.875C132.998 386.95 133.711 387.2 133.806 387.075C133.901 386.95 133.16 386.4 132.001 386.35C130.842 386.3 129.987 386.75 130.072 386.875Z" fill="white"/>
<path d="M174.378 404.848C173.87 404.217 173.178 403.719 172.373 403.406C171.568 403.093 170.682 402.978 169.809 403.072C169.809 403.022 170.056 402.864 170.569 402.781C171.247 402.691 171.941 402.772 172.568 403.016C173.196 403.26 173.731 403.655 174.112 404.156C174.378 404.54 174.454 404.831 174.378 404.848Z" fill="white"/>
<path d="M172.946 407.5C172.841 407.591 172.11 406.983 170.951 406.741C170.234 406.643 169.511 406.587 168.785 406.574C169.115 406.373 169.496 406.245 169.895 406.201C170.293 406.158 170.698 406.2 171.075 406.324C172.385 406.608 173.06 407.441 172.946 407.5Z" fill="white"/>
<path d="M177.059 389.801C176.083 389.555 175.072 389.432 174.057 389.434C173.072 389.573 172.113 389.828 171.207 390.193C171.207 390.151 171.397 389.901 171.891 389.618C172.553 389.27 173.297 389.061 174.066 389.009C174.82 388.956 175.577 389.055 176.28 389.301C176.812 389.534 177.087 389.751 177.059 389.801Z" fill="white"/>
<path d="M174.047 388.35C173.966 388.112 173.944 387.863 173.98 387.617C174.025 386.942 174.222 386.282 174.56 385.674C174.759 385.209 175.13 384.816 175.614 384.557C175.783 384.489 175.972 384.466 176.156 384.491C176.34 384.517 176.512 384.589 176.649 384.699C176.885 384.929 177.022 385.224 177.039 385.533C177.018 386.187 176.738 386.814 176.248 387.307C175.757 387.8 175.086 388.127 174.351 388.234C173.623 388.324 172.881 388.223 172.218 387.944C171.556 387.666 171.002 387.221 170.627 386.666C170.532 386.526 170.473 386.368 170.455 386.205C170.437 386.043 170.46 385.878 170.522 385.724C170.61 385.573 170.748 385.45 170.917 385.369C171.087 385.289 171.281 385.256 171.472 385.274C172.022 385.362 172.536 385.575 172.964 385.891C173.583 386.289 174.117 386.78 174.54 387.342C174.715 387.536 174.841 387.76 174.911 388C174.302 387.29 173.579 386.661 172.764 386.133C172.381 385.874 171.93 385.702 171.453 385.633C171.351 385.619 171.246 385.636 171.155 385.679C171.064 385.723 170.992 385.791 170.95 385.874C170.919 385.977 170.913 386.084 170.933 386.189C170.953 386.294 170.997 386.394 171.064 386.483C171.403 386.955 171.89 387.331 172.466 387.567C173.041 387.804 173.682 387.89 174.313 387.817C174.929 387.716 175.491 387.438 175.91 387.028C176.329 386.618 176.582 386.098 176.63 385.549C176.632 385.327 176.545 385.112 176.383 384.941C176.31 384.876 176.216 384.833 176.114 384.818C176.011 384.803 175.906 384.817 175.813 384.857C175.391 385.071 175.058 385.399 174.863 385.791C174.417 386.594 174.141 387.461 174.047 388.35V388.35Z" fill="white"/>
<path d="M114.134 239.162C112.246 245.768 111.488 252.584 111.883 259.386C112.149 263.704 127.937 388.351 127.937 388.351L148.028 386.8L144.551 270.223L145.397 270.882C145.397 270.882 157.366 319.917 158.154 327.67C158.867 334.639 167.901 387.534 167.901 387.534L187.622 385.133L183.499 319.041L177.581 254.801L175.215 236.094L114.134 239.162Z" fill="#263238"/>
<path d="M148.416 260.178C148.12 260.356 147.801 260.504 147.467 260.619C146.581 260.994 145.641 261.261 144.674 261.411C143.992 261.519 143.294 261.519 142.612 261.411C141.814 261.281 141.075 260.951 140.484 260.461C139.866 259.891 139.433 259.185 139.231 258.419C139.005 257.638 138.824 256.848 138.689 256.051C138.062 252.8 137.654 249.84 137.435 247.715C137.321 246.639 137.245 245.764 137.217 245.164C137.178 244.851 137.178 244.535 137.217 244.222C137.32 244.523 137.383 244.833 137.407 245.147C137.502 245.831 137.625 246.681 137.777 247.648C138.081 249.782 138.537 252.725 139.164 255.984C139.487 257.585 139.687 259.211 140.798 260.153C141.312 260.548 141.919 260.84 142.576 261.005C143.232 261.171 143.923 261.207 144.598 261.111C145.545 260.993 146.474 260.774 147.362 260.461C147.701 260.335 148.055 260.24 148.416 260.178V260.178Z" fill="#455A64"/>
<path d="M142.081 244.856C142.081 244.856 142.223 244.755 142.537 244.747C142.988 244.744 143.428 244.876 143.781 245.122C144.063 245.297 144.296 245.526 144.461 245.792C144.626 246.058 144.718 246.354 144.731 246.656C144.692 247.027 144.533 247.38 144.272 247.673C144.01 247.966 143.659 248.188 143.258 248.311C142.858 248.434 142.426 248.453 142.014 248.367C141.601 248.28 141.225 248.092 140.932 247.823C140.729 247.589 140.589 247.317 140.524 247.028C140.458 246.739 140.467 246.441 140.552 246.156C140.656 245.771 140.903 245.428 141.254 245.181C141.511 245.014 141.691 244.997 141.701 245.014C141.285 245.324 140.998 245.746 140.884 246.214C140.827 246.455 140.832 246.704 140.897 246.944C140.963 247.183 141.088 247.406 141.264 247.598C141.505 247.798 141.804 247.936 142.129 247.997C142.453 248.058 142.79 248.04 143.104 247.944C143.417 247.849 143.694 247.68 143.906 247.456C144.118 247.232 144.255 246.961 144.304 246.673C144.303 246.426 144.243 246.183 144.126 245.959C144.01 245.735 143.841 245.535 143.629 245.372C143.194 245.053 142.648 244.871 142.081 244.856Z" fill="#455A64"/>
<path d="M177.305 253.65C177.058 253.712 176.801 253.74 176.545 253.733C175.846 253.782 175.144 253.782 174.445 253.733C169.788 253.392 165.405 251.659 162.03 248.823C161.524 248.398 161.051 247.944 160.614 247.464C160.32 247.114 160.158 246.922 160.187 246.897C160.215 246.872 160.947 247.589 162.258 248.606C165.681 251.258 169.941 252.936 174.474 253.416C176.212 253.608 177.305 253.575 177.305 253.65Z" fill="#455A64"/>
<path d="M123.156 244.83C122.856 245.534 122.447 246.199 121.94 246.806C120.808 248.332 119.469 249.732 117.951 250.974C116.44 252.211 114.762 253.281 112.954 254.159C112.224 254.552 111.438 254.86 110.617 255.076C111.316 254.654 112.039 254.265 112.783 253.908C114.511 252.967 116.133 251.884 117.628 250.674C119.119 249.456 120.471 248.113 121.665 246.664C122.125 246.03 122.623 245.418 123.156 244.83V244.83Z" fill="#455A64"/>
<path d="M103.228 174.421C100.236 182.065 100.569 181.415 94.983 204.249C93.9571 208.467 95.7714 215.086 100.103 217.087C104.435 219.088 112.129 216.887 114.704 213.219L118.855 178.748L103.228 174.421Z" fill="#FFBF9D"/>
<path d="M177.502 234.36C177.787 236.703 178.3 241.329 178.794 244.105C178.794 244.105 147.589 245.414 126.614 244.547C116.279 244.114 111.776 246.59 111.776 246.59C110.731 238.003 114.113 185.058 114.113 185.058L97.2422 183.724C97.3942 183.274 106.504 162.975 109.354 158.557C111.501 155.428 114.838 153.066 118.777 151.888L132.399 147.786C134.569 150.12 137.457 151.856 140.721 152.788C146.42 154.263 152.396 151.196 156.48 147.369L176.695 154.872L177.084 155.03C178.842 155.864 186.109 159.549 188.294 166.943C192.093 179.756 196.197 191.686 196.197 191.686L175.194 195.896L175.109 197.68L175.223 215.811L175.755 220.155L177.502 234.36Z" fill="#6276F6"/>
<path d="M114.695 167.126C114.781 167.126 114.334 178.58 113.688 192.702C113.042 206.824 112.463 218.278 112.377 218.278C112.292 218.278 112.748 206.824 113.384 192.694C114.021 178.564 114.61 167.118 114.695 167.126Z" fill="#263238"/>
<path d="M172.925 170.327C172.773 170.327 173.201 180.498 173.875 193.027C174.55 205.557 175.215 215.711 175.357 215.711C175.5 215.711 175.082 205.54 174.407 193.002C173.733 180.464 173.077 170.319 172.925 170.327Z" fill="#263238"/>
<path d="M192.758 216.737C192.039 217.55 191.135 218.223 190.103 218.712C189.071 219.202 187.934 219.497 186.764 219.579C177.483 220.263 170.71 212.077 166.398 206.758C163.291 202.907 158.086 193.42 157.449 192.203L157.383 192.086L159.378 190.268L163.918 186.1L165.98 185.95L178.965 197.563L178.243 195.187L195.038 191.769C195.038 191.769 195.608 195.754 196.292 200.264C197.176 205.949 196.33 212.91 192.758 216.737Z" fill="#FFBF9D"/>
<path d="M187.203 202.94C186.173 201.771 184.924 200.764 183.508 199.964C182.2 199.033 180.714 198.313 179.119 197.838C179.043 197.955 180.972 198.947 183.195 200.339C185.417 201.731 187.089 203.04 187.203 202.94Z" fill="#FF9A6C"/>
<path d="M170.58 191.043L164.634 197.837L162.515 200.263L157.481 192.21L157.414 192.094C157.414 192.094 153.092 190.426 151.353 188.034C149.615 185.641 148.846 184.332 148.846 184.332C148.846 184.332 146.347 183.282 145.882 182.273C145.607 181.703 145.459 181.092 145.445 180.473L146.176 179.531L146.708 178.855C146.628 178.149 146.759 177.436 147.088 176.788C147.338 176.476 147.684 176.233 148.086 176.088C148.086 176.088 147.715 174.72 148.295 174.237C149.388 173.666 150.547 173.2 151.752 172.845L149.235 171.594C149.235 171.594 143.649 173.112 143.336 170.869L149.112 168.276L156.597 170.369L160.302 173.37L166.001 185.975L170.58 191.043Z" fill="#FFBF9D"/>
<path d="M151.886 175.437C151.886 175.504 151.002 175.521 149.986 175.721C148.969 175.921 148.086 176.212 148.086 176.154C148.653 175.812 149.304 175.593 149.986 175.512C150.606 175.369 151.254 175.343 151.886 175.437V175.437Z" fill="#FF9A6C"/>
<path d="M150.145 178.272C150.145 178.33 149.395 178.33 148.483 178.455C147.571 178.58 146.849 178.772 146.82 178.714C147.31 178.442 147.867 178.279 148.445 178.239C149.006 178.128 149.59 178.139 150.145 178.272V178.272Z" fill="#FF9A6C"/>
<path d="M147.703 182.699C147.637 182.699 147.589 182.407 147.599 182.057C147.608 181.707 147.665 181.415 147.741 181.415C147.817 181.415 147.855 181.698 147.846 182.057C147.836 182.415 147.779 182.699 147.703 182.699Z" fill="#FF9A6C"/>
<path d="M148.818 184.066C148.732 183.649 148.551 183.252 148.286 182.899C147.96 182.584 147.562 182.334 147.117 182.165C147.117 182.165 147.298 182.123 147.573 182.165C147.949 182.263 148.281 182.461 148.523 182.732C148.758 182.99 148.9 183.303 148.932 183.632C148.903 183.924 148.846 184.066 148.818 184.066Z" fill="#FF9A6C"/>
<path d="M153.328 180.056C153.053 179.727 152.711 179.444 152.321 179.222C151.891 179.048 151.426 178.949 150.953 178.93C150.953 178.93 151.105 178.83 151.381 178.814C151.752 178.802 152.12 178.879 152.445 179.039C152.767 179.195 153.031 179.429 153.204 179.714C153.337 179.864 153.356 180.056 153.328 180.056Z" fill="#FF9A6C"/>
<path d="M155.958 177.222C155.891 177.222 155.663 176.722 155.008 176.388C154.614 176.207 154.191 176.078 153.754 176.005C153.754 176.005 153.906 175.93 154.172 175.938C154.51 175.951 154.838 176.043 155.122 176.205C155.417 176.369 155.656 176.599 155.815 176.872C155.967 177.072 155.986 177.214 155.958 177.222Z" fill="#FF9A6C"/>
<path d="M157.716 175.888C157.716 175.888 157.716 175.713 157.659 175.454C157.606 175.12 157.459 174.802 157.232 174.529C156.999 174.258 156.692 174.043 156.339 173.904C156.073 173.796 155.883 173.762 155.883 173.729C155.883 173.695 156.092 173.679 156.405 173.729C156.813 173.838 157.171 174.059 157.428 174.359C157.684 174.658 157.825 175.022 157.83 175.396C157.83 175.688 157.745 175.888 157.716 175.888Z" fill="#FF9A6C"/>
<path d="M155.277 172.554C155.277 172.629 154.061 172.645 152.607 172.845C151.154 173.046 150.052 173.487 150.023 173.429C150.788 172.984 151.659 172.699 152.569 172.595C153.198 172.508 153.833 172.466 154.469 172.47C154.742 172.462 155.014 172.49 155.277 172.554V172.554Z" fill="#FF9A6C"/>
<g opacity="0.3">
<path d="M138.842 201.022C138.755 199.552 138.266 198.123 137.417 196.854C135.726 194.761 132.411 194.353 129.494 194.444C126.578 194.536 123.557 195.07 120.812 194.194L112.633 215.494C115.699 214.814 118.347 213.121 120.023 210.767C120.859 209.575 121.467 208.191 122.731 207.341C124.469 206.165 126.891 206.341 129.086 206.316C131.388 206.296 133.676 206.001 135.887 205.44C136.843 205.282 137.715 204.858 138.376 204.231C139.117 203.314 138.994 202.106 138.842 201.022Z" fill="black"/>
</g>
<path d="M117.763 176.055L120.3 199.788C120.297 200.336 120.449 200.876 120.74 201.36C121.032 201.844 121.455 202.258 121.972 202.564L138.377 202.256C139.36 201.098 139.808 199.657 139.631 198.221L137.817 175.504C137.703 174.137 137.123 173.153 136.42 173.137L119.141 172.787C118.267 172.728 117.583 174.362 117.763 176.055Z" fill="#263238"/>
<path d="M115.38 180.831C115.053 180.463 114.875 180.01 114.875 179.543C114.875 179.076 115.053 178.623 115.38 178.255C115.733 177.898 116.172 177.615 116.665 177.424C117.157 177.234 117.692 177.142 118.23 177.154C119.293 177.183 120.339 177.395 121.308 177.78C122.521 178.214 123.683 178.753 124.775 179.389C125.186 179.574 125.55 179.832 125.842 180.146C126.135 180.46 126.35 180.824 126.475 181.214C126.608 182.048 125.592 182.882 124.804 182.498C125.361 182.718 125.85 183.052 126.232 183.471C126.613 183.889 126.876 184.382 126.998 184.907C127.14 185.924 126.513 186.45 125.383 186.725C125.803 186.878 126.138 187.17 126.316 187.538C126.494 187.906 126.5 188.32 126.333 188.692C126.067 189.042 125.667 189.297 125.205 189.41C124.743 189.523 124.25 189.487 123.816 189.309C122.953 188.922 122.218 188.348 121.678 187.642C122.215 188.786 122.315 190.053 121.963 191.251C119.522 190.468 117.109 188.075 117.841 185.808C117.241 185.373 116.823 184.777 116.651 184.112C116.479 183.446 116.563 182.75 116.891 182.131C116.328 181.902 115.846 181.543 115.498 181.092C115.15 180.641 114.949 180.116 114.915 179.572L115.38 180.831Z" fill="#FFBF9D"/>
<path d="M115.103 178.756L114.904 188.901L111.911 192.861L98.1562 203.648C98.1562 203.648 100.199 218.304 106.402 216.703C112.605 215.103 114.115 214.061 117.801 208.15C119.767 204.982 120.974 199.814 122.114 196.871C122.779 195.137 122.19 189.552 122.19 189.552L115.103 178.756Z" fill="#FFBF9D"/>
<path d="M125.372 186.725C125.006 186.498 124.657 186.25 124.327 185.984C123.518 185.374 122.568 184.925 121.544 184.666C120.981 184.555 120.397 184.555 119.834 184.666C119.374 184.757 118.942 184.937 118.57 185.192C118.236 185.442 117.954 185.741 117.734 186.075C117.743 185.967 117.778 185.862 117.839 185.767C117.987 185.498 118.194 185.257 118.447 185.058C118.831 184.77 119.286 184.565 119.777 184.458C120.38 184.333 121.007 184.333 121.61 184.458C122.681 184.717 123.661 185.207 124.46 185.883C124.802 186.13 125.108 186.413 125.372 186.725V186.725Z" fill="#FF9A6C"/>
<path d="M125.208 182.599C124.758 182.482 124.326 182.314 123.926 182.098C123.536 181.932 123.08 181.723 122.558 181.548C121.984 181.357 121.393 181.209 120.791 181.106C120.201 180.995 119.593 180.978 118.996 181.056C118.525 181.113 118.076 181.268 117.686 181.507C117.296 181.746 116.977 182.063 116.754 182.432C116.754 182.432 116.754 182.307 116.858 182.107C117.026 181.833 117.256 181.592 117.533 181.398C117.947 181.116 118.433 180.925 118.948 180.84C119.576 180.732 120.221 180.732 120.848 180.84C121.465 180.947 122.069 181.103 122.653 181.306C123.121 181.486 123.574 181.692 124.011 181.923C124.427 182.125 124.827 182.351 125.208 182.599V182.599Z" fill="#FF9A6C"/>
<path d="M99.6389 209.476C99.3113 208.238 99.2533 206.956 99.4679 205.699C99.7444 204.346 100.294 203.047 101.092 201.864C102.1 200.424 103.324 199.109 104.731 197.955C106.203 196.704 107.732 195.604 109.081 194.578C110.301 193.687 111.462 192.735 112.558 191.727C113.288 191.03 113.949 190.28 114.534 189.485C114.774 189.208 114.966 188.902 115.104 188.576C114.848 188.841 114.61 189.12 114.391 189.41C113.746 190.153 113.048 190.86 112.302 191.527C111.352 192.361 110.155 193.303 108.787 194.312C107.419 195.32 105.88 196.412 104.379 197.646C102.945 198.828 101.707 200.18 100.703 201.664C99.8966 202.891 99.3616 204.24 99.1259 205.641C98.971 206.584 99.0064 207.543 99.2304 208.475C99.2887 208.729 99.3746 208.978 99.4869 209.217C99.5819 209.401 99.6294 209.484 99.6389 209.476Z" fill="#FF9A6C"/>
<path opacity="0.14" d="M192.759 216.736C192.04 217.549 191.135 218.222 190.103 218.712C189.071 219.201 187.934 219.496 186.765 219.579C184.131 219.758 181.494 219.272 179.165 218.178C173.665 215.678 169.4 210.534 166.36 206.758C163.32 202.981 158.048 193.419 157.412 192.202L157.345 192.085C157.345 192.085 153.023 190.418 151.285 188.025C149.546 185.633 148.777 184.324 148.777 184.324C148.777 184.324 146.478 183.357 145.927 182.39L145.576 181.556C145.543 181.447 145.518 181.335 145.5 181.223C145.444 180.984 145.416 180.741 145.414 180.498L146.146 179.556C148.045 179.556 150.895 180.123 152.643 183.482C155.493 188.817 159.293 190.151 159.293 190.151L159.359 190.26C159.72 190.86 161.639 193.953 164.584 197.821C170.91 206.107 181.977 217.953 192.759 216.736Z" fill="black"/>
<path opacity="0.14" d="M145.93 182.398C145.897 182.36 145.871 182.318 145.854 182.273C145.743 182.032 145.651 181.784 145.578 181.531L145.93 182.398Z" fill="black"/>
<path d="M145.5 181.198C145.518 181.31 145.543 181.421 145.576 181.531L145.414 181.131L145.5 181.198Z" fill="black"/>
<path opacity="0.3" d="M175.754 220.188C166.322 217.211 156.1 197.779 154.856 194.169C153.906 191.418 150.011 187.984 148.206 186.508C147.587 186.008 147.115 185.385 146.829 184.691L145.879 182.398C146.468 183.365 148.729 184.332 148.729 184.332C148.729 184.332 149.508 185.641 151.237 188.034C152.965 190.426 157.297 192.094 157.297 192.094L157.364 192.21C158 193.386 163.206 202.914 166.312 206.766C168.573 209.575 171.518 213.152 175.137 215.819L175.754 220.188Z" fill="black"/>
</svg>
