<svg width="500" height="500" viewBox="0 0 500 500" fill="none" xmlns="http://www.w3.org/2000/svg">
<path d="M466.89 316.2H303V221.36H466.89V316.2ZM304 315.2H465.89V222.36H304V315.2Z" fill="#E0E0E0"/>
<path d="M433.079 271.93H324.949V275.1H433.079V271.93Z" fill="#F0F0F0"/>
<path d="M440.529 283.75H324.949V287.21H440.529V283.75Z" fill="#F0F0F0"/>
<path d="M440.529 295.71H324.949V299.17H440.529V295.71Z" fill="#F0F0F0"/>
<path d="M362.739 254.76H324.949V262.99H362.739V254.76Z" fill="#F0F0F0"/>
<path d="M466.389 221.86H303.529V236.96H466.389V221.86Z" fill="#E0E0E0"/>
<path d="M453.86 234.7C453.65 234.5 455.75 231.97 458.54 229.05C461.33 226.13 463.78 223.92 463.98 224.11C464.18 224.3 462.09 226.84 459.3 229.77C456.51 232.7 454.06 234.9 453.86 234.7Z" fill="white"/>
<path d="M464 234.7C463.8 234.9 461.36 232.7 458.56 229.77C455.76 226.84 453.67 224.31 453.88 224.11C454.09 223.91 456.52 226.11 459.32 229.05C462.12 231.99 464.19 234.5 464 234.7Z" fill="white"/>
<path d="M265.219 34.0498H102.359V127.9H265.219V34.0498Z" fill="#E6E6E6"/>
<path d="M231.92 84.1299H123.79V87.2999H231.92V84.1299Z" fill="#F0F0F0"/>
<path d="M239.37 95.9497H123.79V99.4097H239.37V95.9497Z" fill="#F0F0F0"/>
<path d="M239.37 107.91H123.79V111.37H239.37V107.91Z" fill="#F0F0F0"/>
<path d="M161.58 66.96H123.79V75.19H161.58V66.96Z" fill="#F0F0F0"/>
<path d="M265.219 34.0498H102.359V49.1498H265.219V34.0498Z" fill="#E0E0E0"/>
<path d="M252.139 46.8196C251.929 46.6296 254.029 44.0896 256.819 41.1696C259.609 38.2496 262.059 36.0396 262.259 36.2396C262.459 36.4396 260.369 38.9696 257.579 41.8896C254.789 44.8096 252.339 46.9996 252.139 46.8196Z" fill="white"/>
<path d="M262.26 46.8197C262.06 47.0197 259.62 44.8197 256.82 41.8897C254.02 38.9597 251.93 36.4397 252.14 36.2397C252.35 36.0397 254.78 38.2397 257.58 41.1697C260.38 44.0997 262.47 46.6297 262.26 46.8197Z" fill="white"/>
<path d="M203.54 208.39H39.6797V113.54H203.54V208.39ZM40.6797 207.39H202.54V114.54H40.6797V207.39Z" fill="#E0E0E0"/>
<path d="M169.739 164.12H61.6094V167.29H169.739V164.12Z" fill="#F0F0F0"/>
<path d="M177.189 175.94H61.6094V179.4H177.189V175.94Z" fill="#F0F0F0"/>
<path d="M177.189 187.9H61.6094V191.36H177.189V187.9Z" fill="#F0F0F0"/>
<path d="M99.3994 146.95H61.6094V155.18H99.3994V146.95Z" fill="#F0F0F0"/>
<path d="M203.04 114.04H40.1797V129.14H203.04V114.04Z" fill="#E0E0E0"/>
<path d="M210.02 175.89H59.3799V332.4H210.02V175.89Z" fill="#F0F0F0"/>
<path d="M210.02 175.89H59.3799V192.94H210.02V175.89Z" fill="#E0E0E0"/>
<path d="M71.8198 184.24C71.7924 184.858 71.584 185.455 71.2206 185.956C70.8571 186.457 70.3545 186.84 69.7752 187.058C69.196 187.276 68.5655 187.318 67.962 187.181C67.3585 187.044 66.8086 186.732 66.3806 186.285C65.9525 185.838 65.6652 185.276 65.5542 184.667C65.4432 184.058 65.5134 183.43 65.7561 182.861C65.9989 182.291 66.4034 181.806 66.9196 181.464C67.4358 181.123 68.0409 180.941 68.6598 180.94C69.5157 180.961 70.3284 181.32 70.9205 181.938C71.5126 182.556 71.8359 183.384 71.8198 184.24Z" fill="white"/>
<path d="M84.6498 184.24C84.6243 184.861 84.4167 185.461 84.0528 185.965C83.6889 186.469 83.1848 186.855 82.6032 187.075C82.0216 187.295 81.3882 187.339 80.7819 187.202C80.1755 187.064 79.6229 186.751 79.1929 186.302C78.7629 185.853 78.4745 185.288 78.3634 184.676C78.2524 184.064 78.3238 183.433 78.5686 182.862C78.8134 182.29 79.2208 181.803 79.7402 181.462C80.2597 181.12 80.8681 180.939 81.4898 180.94C82.3457 180.961 83.1584 181.32 83.7505 181.938C84.3426 182.556 84.6659 183.384 84.6498 184.24Z" fill="white"/>
<path d="M97.4799 184.24C97.4544 184.861 97.2468 185.461 96.8829 185.965C96.519 186.469 96.0149 186.855 95.4333 187.075C94.8517 187.295 94.2183 187.339 93.612 187.202C93.0056 187.064 92.453 186.751 92.023 186.302C91.593 185.853 91.3045 185.288 91.1935 184.676C91.0825 184.064 91.1538 183.433 91.3986 182.862C91.6434 182.29 92.0509 181.803 92.5703 181.462C93.0897 181.12 93.6982 180.939 94.3199 180.94C95.1758 180.961 95.9885 181.32 96.5806 181.938C97.1727 182.556 97.496 183.384 97.4799 184.24Z" fill="white"/>
<path d="M445.38 68.2798H253.08V259.94H445.38V68.2798Z" fill="#F0F0F0"/>
<path d="M445.38 68.2798H253.08V90.7298H445.38V68.2798Z" fill="#E0E0E0"/>
<path d="M269.46 79.2797C269.425 80.0958 269.151 80.8837 268.672 81.5453C268.192 82.207 267.53 82.7134 266.765 83.0016C266.001 83.2898 265.169 83.3471 264.372 83.1664C263.575 82.9858 262.849 82.5751 262.284 81.9854C261.718 81.3957 261.339 80.6529 261.192 79.8493C261.045 79.0457 261.138 78.2166 261.458 77.4651C261.778 76.7135 262.312 76.0726 262.993 75.6219C263.675 75.1711 264.473 74.9304 265.29 74.9297C266.419 74.9559 267.492 75.4284 268.273 76.2436C269.055 77.0589 269.482 78.1505 269.46 79.2797Z" fill="white"/>
<path d="M285.13 76.34C285.685 76.9421 286.049 77.6939 286.18 78.5019C286.31 79.3099 286.199 80.1384 285.862 80.884C285.524 81.6296 284.975 82.2594 284.282 82.695C283.589 83.1306 282.783 83.3527 281.965 83.3336C281.147 83.3145 280.353 83.0551 279.681 82.5877C279.009 82.1202 278.49 81.4655 278.187 80.7049C277.885 79.9444 277.813 79.1117 277.981 78.3106C278.149 77.5096 278.548 76.7756 279.13 76.2C279.945 75.4245 281.034 75.0037 282.159 75.03C283.284 75.0562 284.352 75.5273 285.13 76.34Z" fill="white"/>
<path d="M303.239 79.2797C303.204 80.0958 302.93 80.8837 302.451 81.5453C301.972 82.207 301.309 82.7134 300.544 83.0016C299.78 83.2898 298.948 83.3471 298.151 83.1664C297.354 82.9858 296.628 82.5751 296.063 81.9854C295.498 81.3957 295.118 80.6529 294.971 79.8493C294.824 79.0457 294.917 78.2166 295.237 77.4651C295.557 76.7135 296.091 76.0726 296.773 75.6219C297.454 75.1711 298.253 74.9304 299.069 74.9297C300.198 74.9559 301.271 75.4284 302.053 76.2436C302.834 77.0589 303.261 78.1505 303.239 79.2797Z" fill="white"/>
<path d="M403.84 453.13C403.84 453.27 334.4 453.39 248.77 453.39C163.14 453.39 93.6699 453.27 93.6699 453.13C93.6699 452.99 163.1 452.87 248.77 452.87C334.44 452.87 403.84 453 403.84 453.13Z" fill="#263238"/>
<path d="M371.54 59.6798L366.39 61.5198L364.18 54.7898C360.12 42.3798 347.18 35.7898 335.29 39.9798C323.4 44.1698 317.07 57.7798 321.13 70.1898L323.34 76.9198L318.17 78.7698C316.199 79.5344 314.598 81.0294 313.7 82.9439C312.803 84.8584 312.677 87.0452 313.35 89.0498L327.68 132.84C327.978 133.832 328.472 134.754 329.133 135.552C329.794 136.35 330.608 137.007 331.528 137.483C332.448 137.96 333.454 138.247 334.487 138.327C335.52 138.407 336.558 138.279 337.54 137.95L390.91 118.86C392.908 118.096 394.531 116.588 395.44 114.652C396.348 112.716 396.47 110.504 395.78 108.48L381.44 64.6898C381.135 63.7002 380.634 62.7823 379.966 61.9908C379.298 61.1992 378.478 60.5503 377.554 60.0827C376.63 59.6151 375.621 59.3385 374.588 59.2692C373.555 59.2 372.518 59.3396 371.54 59.6798ZM330.86 66.6798C329.766 63.453 329.962 59.9277 331.409 56.8426C332.855 53.7575 335.44 51.3519 338.62 50.1298C340.191 49.5924 341.854 49.3769 343.509 49.4962C345.165 49.6154 346.78 50.0669 348.257 50.8238C349.735 51.5807 351.044 52.6275 352.108 53.9016C353.172 55.1757 353.969 56.6511 354.45 58.2398L356.65 64.9698L333.06 73.4098L330.86 66.6798ZM360.86 105.54L364.52 116.72C364.588 116.944 364.566 117.185 364.46 117.394C364.354 117.603 364.171 117.762 363.95 117.84L358.82 119.67C358.616 119.726 358.398 119.702 358.212 119.601C358.025 119.5 357.885 119.332 357.82 119.13L354.13 108C352.096 107.889 350.143 107.159 348.535 105.908C346.927 104.657 345.739 102.945 345.13 101C344.261 98.4287 344.419 95.6209 345.573 93.1641C346.727 90.7074 348.786 88.7923 351.32 87.8198C352.571 87.3923 353.896 87.2211 355.215 87.3163C356.533 87.4116 357.819 87.7713 358.996 88.3742C360.173 88.977 361.216 89.8105 362.064 90.8251C362.911 91.8397 363.546 93.0146 363.93 94.2798C364.574 96.2553 364.627 98.3756 364.083 100.381C363.54 102.386 362.423 104.19 360.87 105.57L360.86 105.54Z" fill="#6276F6"/>
<path d="M366.161 61.3996C366.161 61.5396 356.611 65.1296 344.731 69.3996C332.851 73.6696 323.161 77.0996 323.111 76.9996C323.061 76.8996 332.661 73.2796 344.551 68.9996C356.441 64.7196 366.111 61.2696 366.161 61.3996Z" fill="#263238"/>
<path d="M377.501 63.2397C377.545 63.3265 377.581 63.4168 377.611 63.5097C377.691 63.7097 377.781 63.9697 377.901 64.2897C378.161 65.0197 378.521 66.0297 378.971 67.2897L382.811 78.4697C384.411 83.2097 386.321 88.8297 388.441 95.0697C389.441 98.1997 390.621 101.46 391.721 104.89C392.309 106.657 392.564 108.519 392.471 110.38C392.386 111.347 392.11 112.289 391.661 113.15C391.18 114.008 390.538 114.765 389.771 115.38C388.226 116.508 386.511 117.382 384.691 117.97L379.541 119.82L369.791 123.31L353.281 129.19L342.131 133.11L339.131 134.11L338.331 134.37C338.245 134.408 338.154 134.431 338.061 134.44C338.061 134.44 338.141 134.44 338.311 134.32L339.091 134.01L342.091 132.88L353.181 128.8L369.661 122.8L379.391 119.28L384.541 117.42C386.309 116.856 387.974 116.008 389.471 114.91C390.185 114.339 390.782 113.636 391.231 112.84C391.654 112.044 391.909 111.169 391.981 110.27C392.073 108.477 391.828 106.683 391.261 104.98C390.181 101.58 389.041 98.2897 388.011 95.1597C385.931 88.9097 384.011 83.2697 382.491 78.5297C380.971 73.7897 379.691 69.9797 378.811 67.2997C378.391 65.9897 378.071 64.9697 377.811 64.2297L377.571 63.4297C377.54 63.3691 377.517 63.3054 377.501 63.2397Z" fill="#263238"/>
<path d="M349.341 49.4498C349.341 49.4498 348.811 49.1898 347.831 48.7898C346.434 48.253 344.956 47.9555 343.461 47.9098C341.244 47.8337 339.037 48.2504 337.001 49.1298C334.524 50.2247 332.406 51.9958 330.891 54.2398C329.365 56.4773 328.546 59.1215 328.541 61.8298C328.561 64.0495 328.898 66.2549 329.541 68.3798C330.061 70.1998 330.601 71.6498 330.961 72.6598C331.173 73.1728 331.347 73.7009 331.481 74.2398C331.197 73.7601 330.959 73.2545 330.771 72.7298C330.361 71.7298 329.771 70.3098 329.191 68.4798C328.479 66.3326 328.091 64.0913 328.041 61.8298C328.014 59.0192 328.852 56.2683 330.441 53.9498C332.009 51.6239 334.213 49.798 336.791 48.6898C338.891 47.8056 341.166 47.4156 343.441 47.5498C344.969 47.6276 346.47 47.9834 347.871 48.5998C348.245 48.7725 348.606 48.9731 348.951 49.1998C349.093 49.2622 349.224 49.3466 349.341 49.4498Z" fill="#263238"/>
<path d="M349.8 88.5798C349.96 88.4831 350.127 88.3995 350.3 88.3298C350.801 88.1039 351.319 87.92 351.85 87.7798C352.693 87.531 353.563 87.3833 354.44 87.3398C355.634 87.2756 356.829 87.456 357.95 87.8698C360.51 88.7698 362.86 91.3798 364.02 94.8698C364.577 96.7427 364.577 98.7369 364.02 100.61C363.403 102.643 362.298 104.493 360.8 106L360.86 105.73C362.19 109.38 363.64 113.34 365.14 117.47L365.23 117.72L364.98 117.81L362.69 118.57L357.69 120.24L357.44 120.32L357.36 120.07C355.99 115.93 354.49 112.07 353.36 108.28L353.58 108.45C351.625 108.287 349.761 107.554 348.22 106.34C346.826 105.266 345.683 103.901 344.87 102.34C344.137 100.955 343.772 99.4059 343.81 97.8398C343.857 96.2392 344.256 94.6687 344.981 93.2407C345.705 91.8127 346.736 90.5626 348 89.5798C348.521 89.1574 349.105 88.8199 349.73 88.5798C349.165 88.915 348.618 89.2788 348.09 89.6698C346.702 90.8447 345.638 92.3562 345 94.0598C344.453 95.3444 344.197 96.7343 344.251 98.1295C344.305 99.5248 344.666 100.891 345.31 102.13C346.109 103.632 347.225 104.942 348.58 105.97C350.05 107.124 351.828 107.819 353.69 107.97H353.86L353.91 108.12C355.01 111.84 356.52 115.73 357.91 119.89L357.58 119.73L362.58 118.06L364.86 117.29L364.7 117.63C363.21 113.5 361.77 109.53 360.45 105.88V105.73L360.57 105.61C362.024 104.166 363.108 102.392 363.73 100.44C364.261 98.6482 364.261 96.7414 363.73 94.9498C362.64 91.5898 360.39 89.0398 357.95 88.1398C356.87 87.7233 355.717 87.5294 354.56 87.5698C353.697 87.5896 352.838 87.707 352 87.9198C350.51 88.2898 349.81 88.6298 349.8 88.5798Z" fill="#263238"/>
<path d="M318.89 377.32L219 376.86C213.231 376.828 207.711 374.508 203.652 370.41C199.592 366.311 197.326 360.769 197.35 355L198.41 104.59C198.422 101.732 198.997 98.9044 200.102 96.2688C201.207 93.6332 202.821 91.2412 204.851 89.2296C206.881 87.218 209.288 85.6263 211.933 84.5453C214.579 83.4644 217.412 82.9155 220.27 82.93L320.15 83.39C325.918 83.4191 331.44 85.7365 335.501 89.8333C339.562 93.9302 341.831 99.4714 341.81 105.24L340.75 355.64C340.738 358.499 340.163 361.327 339.058 363.964C337.953 366.601 336.34 368.994 334.31 371.007C332.28 373.021 329.873 374.614 327.228 375.697C324.582 376.78 321.749 377.332 318.89 377.32Z" fill="#455A64"/>
<path d="M320 91.9999H300.64C300.008 92.0116 299.385 92.1477 298.806 92.4003C298.227 92.6529 297.703 93.0171 297.265 93.4721C296.827 93.9272 296.482 94.4641 296.252 95.0522C296.021 95.6404 295.908 96.2682 295.92 96.8999V100.41C295.932 101.041 295.819 101.668 295.588 102.256C295.358 102.844 295.013 103.38 294.575 103.834C294.136 104.288 293.612 104.652 293.033 104.903C292.454 105.155 291.831 105.29 291.2 105.3L253.46 105.13C252.183 105.096 250.972 104.557 250.093 103.63C249.214 102.704 248.738 101.467 248.77 100.19V96.6799C248.802 95.4049 248.328 94.169 247.451 93.243C246.574 92.3171 245.365 91.7766 244.09 91.7399H237.28L220.33 91.6599C216.299 91.6359 212.422 93.2104 209.548 96.0387C206.675 98.8669 205.04 102.718 205 106.75L204 351.17C203.991 353.17 204.376 355.152 205.133 357.004C205.89 358.855 207.004 360.539 208.411 361.96C209.819 363.38 211.493 364.51 213.337 365.284C215.181 366.058 217.16 366.461 219.16 366.47L318.84 366.93C320.842 366.939 322.825 366.554 324.678 365.797C326.53 365.039 328.215 363.924 329.637 362.516C331.059 361.107 332.189 359.432 332.963 357.587C333.738 355.741 334.141 353.761 334.15 351.76L335.15 107.34C335.174 103.297 333.592 99.4102 330.751 96.5336C327.91 93.6571 324.043 92.0264 320 91.9999Z" fill="white"/>
<path d="M306.59 334.32L232.47 334C231.7 334 231.08 333.16 231.09 332.14L231.17 312.75C231.17 311.75 231.8 310.89 232.57 310.89L306.69 311.23C307.117 311.304 307.498 311.539 307.755 311.888C308.013 312.236 308.125 312.67 308.07 313.1L308 332.47C308 333.5 307.36 334.33 306.59 334.32Z" fill="#6276F6"/>
<path d="M255.086 324.7C254.663 324.7 254.257 324.632 253.866 324.496C253.482 324.355 253.183 324.177 252.972 323.96L253.208 323.496C253.408 323.691 253.677 323.857 254.013 323.992C254.354 324.122 254.712 324.187 255.086 324.187C255.444 324.187 255.734 324.144 255.956 324.057C256.184 323.965 256.349 323.843 256.452 323.691C256.561 323.54 256.615 323.372 256.615 323.187C256.615 322.965 256.55 322.786 256.42 322.651C256.295 322.515 256.13 322.409 255.924 322.333C255.718 322.252 255.49 322.182 255.241 322.122C254.991 322.062 254.742 322 254.493 321.935C254.243 321.865 254.013 321.772 253.801 321.659C253.595 321.545 253.427 321.396 253.297 321.211C253.173 321.022 253.11 320.775 253.11 320.471C253.11 320.19 253.183 319.932 253.33 319.699C253.482 319.46 253.712 319.271 254.021 319.13C254.33 318.983 254.726 318.91 255.208 318.91C255.528 318.91 255.845 318.956 256.159 319.048C256.474 319.135 256.745 319.257 256.973 319.414L256.769 319.894C256.525 319.731 256.265 319.612 255.989 319.536C255.718 319.46 255.455 319.422 255.2 319.422C254.858 319.422 254.577 319.469 254.354 319.561C254.132 319.653 253.967 319.778 253.858 319.935C253.755 320.087 253.704 320.26 253.704 320.455C253.704 320.677 253.766 320.856 253.891 320.992C254.021 321.127 254.189 321.233 254.395 321.309C254.606 321.385 254.837 321.453 255.086 321.512C255.336 321.572 255.582 321.637 255.826 321.707C256.075 321.778 256.303 321.87 256.509 321.984C256.721 322.092 256.889 322.239 257.013 322.423C257.143 322.607 257.208 322.848 257.208 323.147C257.208 323.423 257.133 323.681 256.981 323.919C256.829 324.152 256.596 324.342 256.281 324.488C255.972 324.629 255.574 324.7 255.086 324.7ZM258.519 324.651V318.959H259.121V324.651H258.519ZM260.973 324.651V318.959H261.469L265.397 323.903H265.136V318.959H265.73V324.651H265.234L261.315 319.707H261.575V324.651H260.973ZM270.084 324.7C269.65 324.7 269.249 324.629 268.881 324.488C268.517 324.342 268.2 324.139 267.929 323.878C267.664 323.618 267.455 323.312 267.303 322.96C267.157 322.607 267.084 322.222 267.084 321.805C267.084 321.388 267.157 321.003 267.303 320.65C267.455 320.298 267.666 319.992 267.937 319.731C268.208 319.471 268.526 319.271 268.889 319.13C269.257 318.983 269.659 318.91 270.092 318.91C270.526 318.91 270.922 318.978 271.279 319.113C271.643 319.249 271.952 319.455 272.206 319.731L271.832 320.114C271.594 319.875 271.331 319.704 271.044 319.601C270.756 319.498 270.447 319.447 270.117 319.447C269.764 319.447 269.439 319.506 269.141 319.626C268.848 319.74 268.591 319.905 268.368 320.122C268.152 320.333 267.981 320.583 267.856 320.87C267.737 321.152 267.677 321.463 267.677 321.805C267.677 322.141 267.737 322.453 267.856 322.74C267.981 323.027 268.152 323.279 268.368 323.496C268.591 323.708 268.848 323.873 269.141 323.992C269.439 324.106 269.762 324.163 270.108 324.163C270.434 324.163 270.74 324.114 271.027 324.017C271.32 323.919 271.588 323.754 271.832 323.521L272.174 323.976C271.903 324.214 271.586 324.396 271.222 324.521C270.859 324.64 270.48 324.7 270.084 324.7ZM271.596 323.903V321.805H272.174V323.976L271.596 323.903ZM278.298 324.7C277.572 324.7 277 324.491 276.582 324.074C276.165 323.656 275.956 323.038 275.956 322.22V318.959H276.558V322.195C276.558 322.867 276.71 323.363 277.013 323.683C277.317 324.003 277.745 324.163 278.298 324.163C278.856 324.163 279.287 324.003 279.591 323.683C279.894 323.363 280.046 322.867 280.046 322.195V318.959H280.632V322.22C280.632 323.038 280.423 323.656 280.005 324.074C279.594 324.491 279.024 324.7 278.298 324.7ZM282.445 324.651V318.959H284.575C285.058 318.959 285.472 319.038 285.819 319.195C286.166 319.347 286.432 319.569 286.616 319.862C286.806 320.149 286.901 320.499 286.901 320.91C286.901 321.312 286.806 321.659 286.616 321.951C286.432 322.239 286.166 322.461 285.819 322.618C285.472 322.775 285.058 322.854 284.575 322.854H282.778L283.047 322.569V324.651H282.445ZM283.047 322.618L282.778 322.325H284.559C285.128 322.325 285.559 322.203 285.852 321.959C286.15 321.71 286.299 321.36 286.299 320.91C286.299 320.455 286.15 320.103 285.852 319.853C285.559 319.604 285.128 319.479 284.559 319.479H282.778L283.047 319.195V322.618Z" fill="#E8E8E3"/>
<path d="M247.254 163.85L221.534 163.733L221.513 168.453L247.232 168.57L247.254 163.85Z" fill="#6276F6"/>
<path opacity="0.1" d="M247.254 163.85L221.534 163.733L221.513 168.453L247.232 168.57L247.254 163.85Z" fill="black"/>
<path d="M322.65 192.83C322.852 192.81 323.05 192.763 323.24 192.69C323.517 192.582 323.757 192.398 323.934 192.159C324.111 191.92 324.217 191.636 324.24 191.34C324.24 189.75 324.24 187.43 324.24 184.45C324.24 182.96 324.24 181.29 324.24 179.45C324.24 179 324.24 178.53 324.24 178.06C324.305 177.604 324.206 177.14 323.96 176.75C323.822 176.563 323.643 176.411 323.437 176.305C323.23 176.199 323.002 176.143 322.77 176.14H321.21H306.76L223.12 175.83C222.906 175.826 222.694 175.875 222.502 175.97C222.311 176.066 222.145 176.207 222.02 176.38C221.778 176.771 221.686 177.236 221.76 177.69C221.76 178.69 221.76 179.69 221.76 180.69C221.76 182.69 221.76 184.69 221.76 186.69C221.76 187.69 221.76 188.69 221.76 189.69C221.718 190.156 221.718 190.624 221.76 191.09C221.812 191.29 221.91 191.475 222.045 191.631C222.18 191.787 222.35 191.91 222.54 191.99C222.737 192.069 222.948 192.106 223.16 192.1H228.25L250.46 192.22L288.06 192.45L313.41 192.65L320.3 192.73H322.09C322.5 192.73 322.7 192.73 322.7 192.73H322.09H320.3H313.41H288.06L250.46 192.61L228.25 192.52H223.16C222.88 192.531 222.6 192.484 222.34 192.38C222.077 192.268 221.842 192.097 221.655 191.88C221.468 191.663 221.333 191.407 221.26 191.13C221.202 190.868 221.182 190.598 221.2 190.33V189.59C221.2 188.59 221.2 187.59 221.2 186.59C221.2 184.59 221.2 182.59 221.2 180.59C221.2 179.59 221.2 178.59 221.2 177.59C221.181 177.324 221.181 177.056 221.2 176.79C221.237 176.496 221.351 176.217 221.53 175.98C221.702 175.739 221.931 175.543 222.195 175.409C222.46 175.274 222.753 175.206 223.05 175.21L306.69 175.67L321.14 175.77H322.7C322.975 175.77 323.245 175.837 323.489 175.964C323.733 176.091 323.942 176.275 324.1 176.5C324.382 176.935 324.496 177.457 324.42 177.97C324.42 178.44 324.42 178.91 324.42 179.36C324.42 181.18 324.42 182.85 324.42 184.36C324.42 187.36 324.35 189.66 324.33 191.26C324.305 191.568 324.194 191.862 324.008 192.108C323.822 192.354 323.569 192.542 323.28 192.65C323.091 192.767 322.872 192.83 322.65 192.83Z" fill="#E0E0E0"/>
<path d="M276.3 180.85H229.26V185.26H276.3V180.85Z" fill="#6276F6"/>
<path opacity="0.2" d="M276.3 180.85H229.26V185.26H276.3V180.85Z" fill="white"/>
<path d="M247.078 206.909L221.358 206.792L221.337 211.512L247.057 211.629L247.078 206.909Z" fill="#6276F6"/>
<path opacity="0.1" d="M247.078 206.909L221.358 206.792L221.337 211.512L247.057 211.629L247.078 206.909Z" fill="black"/>
<path d="M322 235.89C322.202 235.865 322.402 235.828 322.6 235.78C322.879 235.691 323.136 235.543 323.354 235.347C323.571 235.15 323.744 234.909 323.86 234.64C324.017 234.236 324.079 233.801 324.04 233.37C324.04 232.89 324.04 232.37 324.04 231.79C324.04 230.63 324.04 229.31 324.04 227.79V221.44C324.088 220.98 323.986 220.517 323.75 220.12C323.503 219.712 323.115 219.41 322.66 219.27C322.162 219.181 321.655 219.154 321.15 219.19H306.76L223.41 218.88C222.962 218.881 222.529 219.045 222.192 219.341C221.856 219.637 221.638 220.045 221.58 220.49C221.58 221.44 221.58 222.49 221.58 223.49C221.58 225.49 221.58 227.49 221.58 229.49C221.58 230.49 221.58 231.49 221.58 232.49C221.543 232.957 221.563 233.427 221.64 233.89C221.765 234.295 222.022 234.647 222.37 234.89C222.739 235.124 223.173 235.236 223.61 235.21H225H227.89L250.02 235.32L287.49 235.55L312.75 235.75L319.62 235.83H321.41H322.01H321.41H319.62H312.75H287.49L250 235.79L227.87 235.71H223.52C222.979 235.742 222.442 235.598 221.99 235.3C221.535 234.985 221.203 234.522 221.05 233.99C220.96 233.482 220.933 232.965 220.97 232.45C220.97 231.45 220.97 230.45 220.97 229.45C220.97 227.45 220.97 225.45 220.97 223.45C220.97 222.45 220.97 221.45 220.97 220.45C221.043 219.878 221.322 219.352 221.754 218.971C222.187 218.59 222.743 218.38 223.32 218.38L306.67 218.84L321.06 218.95C321.596 218.917 322.134 218.954 322.66 219.06C323.179 219.23 323.618 219.586 323.89 220.06C324.149 220.5 324.261 221.012 324.21 221.52C324.21 221.99 324.21 222.45 324.21 222.91C324.21 224.72 324.21 226.38 324.21 227.91C324.21 229.44 324.21 230.73 324.21 231.91C324.21 232.48 324.21 233.01 324.21 233.5C324.246 233.947 324.174 234.396 324 234.81C323.87 235.086 323.682 235.33 323.449 235.527C323.216 235.724 322.944 235.868 322.65 235.95C322.431 235.968 322.211 235.948 322 235.89Z" fill="#E0E0E0"/>
<path d="M246.885 251.837L221.165 251.721L221.144 256.441L246.863 256.557L246.885 251.837Z" fill="#6276F6"/>
<path opacity="0.1" d="M246.885 251.837L221.165 251.721L221.144 256.441L246.863 256.557L246.885 251.837Z" fill="black"/>
<path d="M321.8 280.8C322.002 280.776 322.202 280.74 322.4 280.69C322.678 280.602 322.934 280.455 323.151 280.261C323.368 280.066 323.542 279.827 323.66 279.56C323.816 279.156 323.878 278.722 323.84 278.29C323.84 277.8 323.84 277.29 323.84 276.7C323.84 275.55 323.84 274.22 323.84 272.7V266.35C323.887 265.89 323.786 265.428 323.55 265.03C323.297 264.63 322.911 264.332 322.46 264.19C321.962 264.098 321.455 264.067 320.95 264.1H306.56L223.21 263.79C222.761 263.791 222.329 263.955 221.992 264.251C221.655 264.547 221.438 264.956 221.38 265.4C221.38 266.4 221.38 267.4 221.38 268.4C221.38 270.4 221.38 272.4 221.38 274.4C221.38 275.4 221.38 276.4 221.38 277.4C221.342 277.864 221.362 278.331 221.44 278.79C221.559 279.198 221.817 279.552 222.17 279.79C222.537 280.03 222.972 280.142 223.41 280.11H227.76L249.89 280.23L287.36 280.46L312.62 280.66L319.49 280.74H321.28C321.68 280.74 321.88 280.74 321.88 280.74C321.88 280.74 321.68 280.74 321.28 280.74H319.49H312.62H287.36L249.89 280.63L227.76 280.54H223.41C222.868 280.577 222.33 280.432 221.88 280.13C221.425 279.815 221.092 279.352 220.94 278.82C220.85 278.312 220.823 277.795 220.86 277.28C220.86 276.28 220.86 275.28 220.86 274.28C220.86 272.28 220.86 270.28 220.86 268.28C220.86 267.28 220.86 266.28 220.86 265.23C220.93 264.659 221.207 264.134 221.638 263.753C222.069 263.371 222.624 263.161 223.2 263.16L306.55 263.62L320.94 263.73C321.475 263.697 322.013 263.734 322.54 263.84C323.059 264.01 323.497 264.366 323.77 264.84C324.028 265.281 324.14 265.792 324.09 266.3C324.09 266.77 324.09 267.24 324.09 267.69C324.09 269.5 324.09 271.16 324.09 272.69C324.09 274.22 324.09 275.51 324.09 276.69C324.09 277.26 324.09 277.79 324.09 278.28C324.128 278.727 324.056 279.177 323.88 279.59C323.75 279.866 323.562 280.111 323.329 280.307C323.096 280.504 322.823 280.648 322.53 280.73C322.295 280.81 322.045 280.834 321.8 280.8Z" fill="#E0E0E0"/>
<path d="M275.295 225.157L228.256 224.943L228.236 229.353L275.275 229.567L275.295 225.157Z" fill="#6276F6"/>
<path opacity="0.2" d="M275.295 225.157L228.256 224.943L228.236 229.353L275.275 229.567L275.295 225.157Z" fill="white"/>
<path d="M232.51 272.64C232.48 273.042 232.334 273.427 232.087 273.746C231.841 274.066 231.507 274.306 231.125 274.437C230.744 274.568 230.332 274.585 229.942 274.484C229.551 274.384 229.199 274.171 228.928 273.871C228.657 273.572 228.481 273.2 228.419 272.802C228.358 272.403 228.415 271.995 228.584 271.629C228.752 271.262 229.025 270.953 229.367 270.74C229.709 270.527 230.107 270.419 230.51 270.43C231.067 270.461 231.59 270.71 231.964 271.124C232.338 271.538 232.535 272.083 232.51 272.64Z" fill="#6276F6"/>
<path d="M238.88 272.67C238.899 272.952 238.861 273.235 238.766 273.501C238.672 273.767 238.524 274.012 238.331 274.218C238.138 274.425 237.905 274.59 237.646 274.702C237.387 274.815 237.107 274.873 236.825 274.873C236.542 274.873 236.262 274.815 236.003 274.702C235.744 274.59 235.511 274.425 235.318 274.218C235.125 274.012 234.977 273.767 234.883 273.501C234.789 273.235 234.75 272.952 234.77 272.67C234.75 272.388 234.789 272.105 234.883 271.839C234.977 271.572 235.125 271.328 235.318 271.121C235.511 270.915 235.744 270.75 236.003 270.637C236.262 270.524 236.542 270.466 236.825 270.466C237.107 270.466 237.387 270.524 237.646 270.637C237.905 270.75 238.138 270.915 238.331 271.121C238.524 271.328 238.672 271.572 238.766 271.839C238.861 272.105 238.899 272.388 238.88 272.67Z" fill="#6276F6"/>
<path d="M245.26 272.7C245.23 273.102 245.084 273.487 244.837 273.806C244.591 274.126 244.257 274.366 243.875 274.497C243.494 274.628 243.082 274.645 242.692 274.544C242.301 274.444 241.949 274.231 241.678 273.932C241.407 273.632 241.231 273.261 241.169 272.862C241.108 272.463 241.165 272.055 241.334 271.689C241.502 271.322 241.775 271.014 242.117 270.8C242.459 270.587 242.857 270.479 243.26 270.49C243.816 270.524 244.337 270.774 244.711 271.187C245.085 271.6 245.282 272.143 245.26 272.7Z" fill="#6276F6"/>
<path d="M251.63 272.73C251.601 273.132 251.454 273.517 251.208 273.836C250.961 274.156 250.627 274.396 250.245 274.527C249.864 274.658 249.452 274.675 249.062 274.574C248.671 274.473 248.319 274.26 248.048 273.961C247.778 273.662 247.601 273.29 247.539 272.892C247.478 272.493 247.535 272.085 247.704 271.719C247.872 271.352 248.145 271.043 248.487 270.83C248.829 270.617 249.227 270.509 249.63 270.52C250.186 270.553 250.707 270.804 251.081 271.217C251.455 271.63 251.652 272.173 251.63 272.73Z" fill="#6276F6"/>
<path d="M258 272.75C257.972 273.153 257.827 273.539 257.582 273.86C257.337 274.181 257.003 274.422 256.621 274.555C256.24 274.688 255.828 274.705 255.437 274.606C255.046 274.506 254.692 274.294 254.42 273.995C254.149 273.696 253.971 273.324 253.909 272.925C253.847 272.526 253.904 272.118 254.072 271.751C254.24 271.384 254.513 271.074 254.856 270.861C255.198 270.647 255.596 270.539 256 270.55C256.554 270.584 257.074 270.832 257.447 271.243C257.821 271.654 258.019 272.195 258 272.75Z" fill="#6276F6"/>
<path d="M264.38 272.78C264.353 273.181 264.209 273.565 263.966 273.885C263.723 274.205 263.392 274.447 263.014 274.581C262.635 274.716 262.226 274.737 261.835 274.641C261.445 274.546 261.091 274.338 260.818 274.044C260.544 273.751 260.362 273.383 260.294 272.987C260.226 272.591 260.276 272.184 260.437 271.816C260.597 271.448 260.862 271.135 261.199 270.915C261.535 270.696 261.928 270.579 262.33 270.58C262.893 270.601 263.425 270.844 263.809 271.257C264.194 271.669 264.399 272.217 264.38 272.78Z" fill="#6276F6"/>
<path d="M270.75 272.81C270.769 273.092 270.731 273.375 270.637 273.641C270.542 273.908 270.394 274.152 270.201 274.358C270.009 274.565 269.775 274.73 269.516 274.842C269.257 274.955 268.977 275.013 268.695 275.013C268.412 275.013 268.133 274.955 267.873 274.842C267.614 274.73 267.381 274.565 267.188 274.358C266.996 274.152 266.847 273.908 266.753 273.641C266.659 273.375 266.62 273.092 266.64 272.81C266.62 272.528 266.659 272.245 266.753 271.979C266.847 271.712 266.996 271.468 267.188 271.261C267.381 271.055 267.614 270.89 267.873 270.777C268.133 270.665 268.412 270.606 268.695 270.606C268.977 270.606 269.257 270.665 269.516 270.777C269.775 270.89 270.009 271.055 270.201 271.261C270.394 271.468 270.542 271.712 270.637 271.979C270.731 272.245 270.769 272.528 270.75 272.81Z" fill="#6276F6"/>
<path d="M277.12 272.84C277.093 273.241 276.949 273.625 276.706 273.945C276.463 274.265 276.132 274.507 275.754 274.641C275.375 274.776 274.966 274.797 274.576 274.701C274.185 274.606 273.832 274.398 273.558 274.104C273.284 273.811 273.102 273.443 273.034 273.047C272.967 272.651 273.016 272.244 273.177 271.876C273.338 271.508 273.602 271.195 273.939 270.975C274.275 270.756 274.668 270.639 275.07 270.64C275.633 270.661 276.165 270.904 276.55 271.317C276.934 271.729 277.139 272.277 277.12 272.84Z" fill="#6276F6"/>
<path d="M283.49 272.87C283.463 273.273 283.317 273.659 283.072 273.98C282.827 274.301 282.493 274.542 282.112 274.675C281.73 274.808 281.318 274.825 280.927 274.726C280.536 274.626 280.182 274.414 279.911 274.115C279.639 273.816 279.461 273.444 279.399 273.045C279.337 272.646 279.394 272.238 279.562 271.871C279.731 271.504 280.003 271.194 280.346 270.981C280.689 270.767 281.087 270.659 281.49 270.67C282.045 270.704 282.564 270.953 282.938 271.363C283.311 271.774 283.509 272.315 283.49 272.87Z" fill="#6276F6"/>
<g opacity="0.2">
<path d="M232.51 272.64C232.48 273.042 232.334 273.427 232.087 273.746C231.841 274.066 231.507 274.306 231.125 274.437C230.744 274.568 230.332 274.585 229.942 274.484C229.551 274.384 229.199 274.171 228.928 273.871C228.657 273.572 228.481 273.2 228.419 272.802C228.358 272.403 228.415 271.995 228.584 271.629C228.752 271.262 229.025 270.953 229.367 270.74C229.709 270.527 230.107 270.419 230.51 270.43C231.067 270.461 231.59 270.71 231.964 271.124C232.338 271.538 232.535 272.083 232.51 272.64Z" fill="white"/>
<path d="M238.88 272.67C238.899 272.952 238.861 273.235 238.766 273.501C238.672 273.767 238.524 274.012 238.331 274.218C238.138 274.425 237.905 274.59 237.646 274.702C237.387 274.815 237.107 274.873 236.825 274.873C236.542 274.873 236.262 274.815 236.003 274.702C235.744 274.59 235.511 274.425 235.318 274.218C235.125 274.012 234.977 273.767 234.883 273.501C234.789 273.235 234.75 272.952 234.77 272.67C234.75 272.388 234.789 272.105 234.883 271.839C234.977 271.572 235.125 271.328 235.318 271.121C235.511 270.915 235.744 270.75 236.003 270.637C236.262 270.524 236.542 270.466 236.825 270.466C237.107 270.466 237.387 270.524 237.646 270.637C237.905 270.75 238.138 270.915 238.331 271.121C238.524 271.328 238.672 271.572 238.766 271.839C238.861 272.105 238.899 272.388 238.88 272.67Z" fill="white"/>
<path d="M245.26 272.7C245.23 273.102 245.084 273.487 244.837 273.806C244.591 274.126 244.257 274.366 243.875 274.497C243.494 274.628 243.082 274.645 242.692 274.544C242.301 274.444 241.949 274.231 241.678 273.932C241.407 273.632 241.231 273.261 241.169 272.862C241.108 272.463 241.165 272.055 241.334 271.689C241.502 271.322 241.775 271.014 242.117 270.8C242.459 270.587 242.857 270.479 243.26 270.49C243.816 270.524 244.337 270.774 244.711 271.187C245.085 271.6 245.282 272.143 245.26 272.7Z" fill="white"/>
<path d="M251.63 272.73C251.601 273.132 251.454 273.517 251.208 273.836C250.961 274.156 250.627 274.396 250.245 274.527C249.864 274.658 249.452 274.675 249.062 274.574C248.671 274.473 248.319 274.26 248.048 273.961C247.778 273.662 247.601 273.29 247.539 272.892C247.478 272.493 247.535 272.085 247.704 271.719C247.872 271.352 248.145 271.043 248.487 270.83C248.829 270.617 249.227 270.509 249.63 270.52C250.186 270.553 250.707 270.804 251.081 271.217C251.455 271.63 251.652 272.173 251.63 272.73Z" fill="white"/>
<path d="M258 272.75C257.972 273.153 257.827 273.539 257.582 273.86C257.337 274.181 257.003 274.422 256.621 274.555C256.24 274.688 255.828 274.705 255.437 274.606C255.046 274.506 254.692 274.294 254.42 273.995C254.149 273.696 253.971 273.324 253.909 272.925C253.847 272.526 253.904 272.118 254.072 271.751C254.24 271.384 254.513 271.074 254.856 270.861C255.198 270.647 255.596 270.539 256 270.55C256.554 270.584 257.074 270.832 257.447 271.243C257.821 271.654 258.019 272.195 258 272.75Z" fill="white"/>
<path d="M264.38 272.78C264.353 273.181 264.209 273.565 263.966 273.885C263.723 274.205 263.392 274.447 263.014 274.581C262.635 274.716 262.226 274.737 261.835 274.641C261.445 274.546 261.091 274.338 260.818 274.044C260.544 273.751 260.362 273.383 260.294 272.987C260.226 272.591 260.276 272.184 260.437 271.816C260.597 271.448 260.862 271.135 261.199 270.915C261.535 270.696 261.928 270.579 262.33 270.58C262.893 270.601 263.425 270.844 263.809 271.257C264.194 271.669 264.399 272.217 264.38 272.78Z" fill="white"/>
<path d="M270.75 272.81C270.769 273.092 270.731 273.375 270.637 273.641C270.542 273.908 270.394 274.152 270.201 274.358C270.009 274.565 269.775 274.73 269.516 274.842C269.257 274.955 268.977 275.013 268.695 275.013C268.412 275.013 268.133 274.955 267.873 274.842C267.614 274.73 267.381 274.565 267.188 274.358C266.996 274.152 266.847 273.908 266.753 273.641C266.659 273.375 266.62 273.092 266.64 272.81C266.62 272.528 266.659 272.245 266.753 271.979C266.847 271.712 266.996 271.468 267.188 271.261C267.381 271.055 267.614 270.89 267.873 270.777C268.133 270.665 268.412 270.606 268.695 270.606C268.977 270.606 269.257 270.665 269.516 270.777C269.775 270.89 270.009 271.055 270.201 271.261C270.394 271.468 270.542 271.712 270.637 271.979C270.731 272.245 270.769 272.528 270.75 272.81Z" fill="white"/>
<path d="M277.12 272.84C277.093 273.241 276.949 273.625 276.706 273.945C276.463 274.265 276.132 274.507 275.754 274.641C275.375 274.776 274.966 274.797 274.576 274.701C274.185 274.606 273.832 274.398 273.558 274.104C273.284 273.811 273.102 273.443 273.034 273.047C272.967 272.651 273.016 272.244 273.177 271.876C273.338 271.508 273.602 271.195 273.939 270.975C274.275 270.756 274.668 270.639 275.07 270.64C275.633 270.661 276.165 270.904 276.55 271.317C276.934 271.729 277.139 272.277 277.12 272.84Z" fill="white"/>
<path d="M283.49 272.87C283.463 273.273 283.317 273.659 283.072 273.98C282.827 274.301 282.493 274.542 282.112 274.675C281.73 274.808 281.318 274.825 280.927 274.726C280.536 274.626 280.182 274.414 279.911 274.115C279.639 273.816 279.461 273.444 279.399 273.045C279.337 272.646 279.394 272.238 279.562 271.871C279.731 271.504 280.003 271.194 280.346 270.981C280.689 270.767 281.087 270.659 281.49 270.67C282.045 270.704 282.564 270.953 282.938 271.363C283.311 271.774 283.509 272.315 283.49 272.87Z" fill="white"/>
</g>
<path d="M274.44 128.51C275.135 128.204 275.724 127.701 276.135 127.062C276.545 126.424 276.759 125.679 276.75 124.92C276.776 124.427 276.701 123.933 276.53 123.47C276.359 123.006 276.095 122.582 275.755 122.224C275.415 121.865 275.006 121.58 274.552 121.385C274.098 121.19 273.609 121.089 273.115 121.089C272.621 121.089 272.132 121.19 271.678 121.385C271.224 121.58 270.815 121.865 270.474 122.224C270.134 122.582 269.871 123.006 269.7 123.47C269.529 123.933 269.454 124.427 269.48 124.92C269.465 125.687 269.677 126.441 270.09 127.087C270.503 127.733 271.098 128.242 271.8 128.55C266.2 129.39 266.45 135.47 266.45 135.47L279.69 135.53C279.69 135.53 280 129.34 274.44 128.51Z" fill="#6276F6"/>
<path opacity="0.1" d="M274.44 128.51C275.135 128.204 275.724 127.701 276.135 127.062C276.545 126.424 276.759 125.679 276.75 124.92C276.776 124.427 276.701 123.933 276.53 123.47C276.359 123.006 276.095 122.582 275.755 122.224C275.415 121.865 275.006 121.58 274.552 121.385C274.098 121.19 273.609 121.089 273.115 121.089C272.621 121.089 272.132 121.19 271.678 121.385C271.224 121.58 270.815 121.865 270.474 122.224C270.134 122.582 269.871 123.006 269.7 123.47C269.529 123.933 269.454 124.427 269.48 124.92C269.465 125.687 269.677 126.441 270.09 127.087C270.503 127.733 271.098 128.242 271.8 128.55C266.2 129.39 266.45 135.47 266.45 135.47L279.69 135.53C279.69 135.53 280 129.34 274.44 128.51Z" fill="black"/>
<path d="M295.954 139.451L248.765 139.237L248.739 144.877L295.929 145.091L295.954 139.451Z" fill="#6276F6"/>
<path opacity="0.2" d="M295.954 139.451L248.765 139.237L248.739 144.877L295.929 145.091L295.954 139.451Z" fill="white"/>
<path d="M122.47 168.68H122L120.64 168.78C119.904 168.824 119.172 168.921 118.45 169.07C117.982 169.135 117.519 169.226 117.06 169.34L115.51 169.77C112.872 170.579 110.383 171.812 108.14 173.42C105.177 175.571 102.703 178.324 100.88 181.5C99.809 183.33 98.9564 185.28 98.3402 187.31C97.6927 189.515 97.3199 191.793 97.2302 194.09C97.1706 195.296 97.1907 196.506 97.2902 197.71C97.2902 198.32 97.4602 198.93 97.5402 199.55C97.6075 200.175 97.7246 200.793 97.8902 201.4C98.7894 205.413 100.614 209.16 103.218 212.342C105.823 215.525 109.135 218.054 112.89 219.73C115.608 220.903 118.522 221.557 121.48 221.66C124.536 221.828 127.595 221.389 130.48 220.37L131.36 220.04H131.48L131.58 220.1L144.19 226.5L143.82 226.82C142.47 222.64 141.17 218.59 139.91 214.7V214.55L140.02 214.44C143.079 211.359 145.35 207.585 146.64 203.44C147.809 199.65 148.15 195.653 147.64 191.72C147.187 188.224 146.063 184.849 144.33 181.78C142.837 179.143 140.91 176.777 138.63 174.78C136.75 173.199 134.668 171.874 132.44 170.84C130.754 170.113 128.999 169.56 127.2 169.19L125.2 168.86L123.75 168.75L122.87 168.69H122.57C122.67 168.679 122.771 168.679 122.87 168.69H123.76L125.21 168.75L127.21 169.04C129.031 169.383 130.811 169.916 132.52 170.63C134.787 171.652 136.905 172.974 138.82 174.56C141.141 176.548 143.109 178.915 144.64 181.56C146.422 184.662 147.581 188.083 148.05 191.63C148.602 195.624 148.285 199.69 147.12 203.55C145.822 207.782 143.516 211.635 140.4 214.78L140.46 214.52C141.72 218.41 143.03 222.46 144.39 226.63L144.58 227.24L144.01 226.95L131.4 220.56H131.62L130.72 220.89C127.779 221.925 124.664 222.373 121.55 222.21C118.528 222.095 115.554 221.416 112.78 220.21C107.49 217.944 103.088 214.006 100.25 209C98.9441 206.688 97.9903 204.193 97.4202 201.6C97.2641 200.978 97.1472 200.346 97.0702 199.71C96.9902 199.08 96.8602 198.46 96.8302 197.84C96.5596 194.282 96.9357 190.704 97.9402 187.28C98.5718 185.222 99.4481 183.248 100.55 181.4C102.416 178.195 104.942 175.424 107.96 173.27C110.24 171.658 112.771 170.435 115.45 169.65L117.02 169.25C117.482 169.143 117.95 169.059 118.42 169C119.15 168.865 119.889 168.784 120.63 168.76L122 168.71C122.156 168.689 122.313 168.679 122.47 168.68Z" fill="#6276F6"/>
<path d="M128.17 192H126.32L122.32 186.38V182.69C122.32 182.69 119.46 182.51 119.8 187.34C120.14 192.17 119.8 190.94 119.8 190.94C119.8 190.94 113.73 190.94 113.23 191.49C112.73 192.04 112.7 197.9 112.63 201.17C112.592 201.958 112.818 202.737 113.273 203.382C113.728 204.027 114.385 204.501 115.14 204.73C115.352 204.788 115.57 204.819 115.79 204.82C117.31 204.82 125.04 203.59 125.04 203.59H128.23L128.17 192Z" fill="#6276F6"/>
<path d="M133.46 191.01L132.32 203.65H129.16V191.27L133.46 191.01Z" fill="#6276F6"/>
<path d="M171.15 448.34V439.79L155.82 439.68L155.69 452.61L156.64 452.68C160.87 452.95 178.16 453.35 181 452.47C184.16 451.49 171.15 448.34 171.15 448.34Z" fill="#6276F6"/>
<path d="M181.36 451.67C181.36 451.81 175.62 451.93 168.55 451.93C161.48 451.93 155.74 451.81 155.74 451.67C155.74 451.53 161.48 451.41 168.55 451.41C175.62 451.41 181.36 451.53 181.36 451.67Z" fill="#263238"/>
<path d="M171.42 450.09C171.29 450.02 171.42 449.57 171.73 449.09C172.04 448.61 172.46 448.41 172.56 448.51C172.66 448.61 172.45 448.99 172.15 449.4C171.85 449.81 171.55 450.16 171.42 450.09Z" fill="#263238"/>
<path d="M172.4 450.65C172.26 450.65 172.33 450.09 172.63 449.56C172.93 449.03 173.33 448.71 173.44 448.79C173.55 448.87 173.37 449.32 173.09 449.79C172.81 450.26 172.53 450.7 172.4 450.65Z" fill="#263238"/>
<path d="M160.36 451.63C160.3 451.63 160.07 451.45 159.74 451.07C159.337 450.581 158.888 450.133 158.4 449.73C157.919 449.346 157.347 449.094 156.74 449C156.27 448.94 155.97 449 155.94 448.94C155.91 448.88 156.2 448.67 156.75 448.63C157.475 448.615 158.184 448.855 158.75 449.31C159.28 449.742 159.727 450.267 160.07 450.86C160.3 451.3 160.42 451.59 160.36 451.63Z" fill="#263238"/>
<path d="M171.47 448.48C171.54 448.6 171.28 448.9 170.84 449.06C170.4 449.22 170.01 449.16 169.99 449.06C169.97 448.96 170.28 448.75 170.66 448.61C171.04 448.47 171.39 448.36 171.47 448.48Z" fill="#263238"/>
<path d="M171.23 447.65C171.23 447.8 170.83 447.92 170.31 447.93C169.79 447.94 169.38 447.82 169.39 447.68C169.4 447.54 169.81 447.41 170.31 447.4C170.81 447.39 171.21 447.51 171.23 447.65Z" fill="#263238"/>
<path d="M208.9 448.34V439.79L193.57 439.68L193.44 452.48L194.39 452.55C198.62 452.82 215.92 453.35 218.75 452.47C221.91 451.49 208.9 448.34 208.9 448.34Z" fill="#6276F6"/>
<path d="M219.11 451.69C219.11 451.83 213.38 451.95 206.3 451.95C199.22 451.95 193.5 451.83 193.5 451.69C193.5 451.55 199.23 451.43 206.3 451.43C213.37 451.43 219.11 451.55 219.11 451.69Z" fill="#263238"/>
<path d="M209.17 450.09C209.05 450.02 209.17 449.57 209.48 449.09C209.79 448.61 210.21 448.41 210.31 448.51C210.41 448.61 210.2 448.99 209.9 449.4C209.6 449.81 209.3 450.16 209.17 450.09Z" fill="#263238"/>
<path d="M210.15 450.65C210.02 450.65 210.08 450.09 210.39 449.56C210.7 449.03 211.09 448.71 211.2 448.79C211.31 448.87 211.12 449.32 210.84 449.79C210.56 450.26 210.29 450.7 210.15 450.65Z" fill="#263238"/>
<path d="M198.11 451.63C198.05 451.63 197.83 451.45 197.49 451.07C197.087 450.581 196.638 450.133 196.15 449.73C195.669 449.346 195.097 449.094 194.49 449C194.03 448.94 193.72 449 193.69 448.94C193.66 448.88 193.95 448.67 194.5 448.63C195.225 448.615 195.934 448.855 196.5 449.31C197.033 449.739 197.48 450.265 197.82 450.86C198.05 451.3 198.17 451.59 198.11 451.63Z" fill="#263238"/>
<path d="M209.22 448.48C209.29 448.6 209.03 448.9 208.59 449.06C208.15 449.22 207.76 449.16 207.74 449.06C207.72 448.96 208.03 448.75 208.41 448.61C208.79 448.47 209.14 448.36 209.22 448.48Z" fill="#263238"/>
<path d="M209 447.65C209 447.8 208.6 447.92 208.08 447.93C207.56 447.94 207.16 447.82 207.17 447.68C207.18 447.54 207.58 447.41 208.08 447.4C208.58 447.39 209 447.51 209 447.65Z" fill="#263238"/>
<path d="M265.38 194.44C264.98 194.03 263.99 194.23 263.99 194.23C264.089 193.654 264.089 193.066 263.99 192.49C263.81 191.93 262.55 192.04 262.55 192.04C262.492 191.568 262.492 191.092 262.55 190.62C262.56 190.515 262.538 190.41 262.486 190.319C262.434 190.228 262.355 190.155 262.26 190.11C261.664 189.867 261.023 189.751 260.38 189.77C259.61 189.22 262.73 184.85 263.89 183.45C265.05 182.05 264.84 180.96 263.81 180.96C263.1 180.96 259.46 185.16 258.34 186.57C257.22 187.98 254.25 191.9 254.15 188.77C254.05 185.64 252.79 183.28 252 182.88C251.21 182.48 250.37 183.42 250.8 184.29C251.178 185.278 251.413 186.315 251.5 187.37C251.609 188.21 251.571 189.063 251.39 189.89C251.058 191.429 250.607 192.941 250.04 194.41H249.96C249.96 194.41 228.14 215.34 226.56 216.83C225.15 218.17 196.79 215.24 191.1 214.64C189.166 214.357 187.214 214.223 185.26 214.24C182.79 214.35 182.35 214.7 179.89 214.73C173.677 214.799 167.479 215.344 161.35 216.36C158.575 216.832 155.982 218.057 153.855 219.901C151.729 221.746 150.149 224.139 149.29 226.82C143.56 244.72 130.58 287.09 128.29 310.89C126.56 314.028 124.997 317.256 123.61 320.56C122 324.94 122.39 325.09 122.93 325.19C124.39 325.46 126.05 317.6 126.67 319.5C127.29 321.4 123.52 328.87 125.05 329.09C127.05 329.37 128.64 321.09 128.83 320.43C129.02 319.77 130.01 319.98 129.83 320.6C129.54 321.48 126.73 330.81 128.69 331.11C129.77 331.27 129.89 329.3 129.89 329.3C129.89 329.3 131.89 320.37 132.8 320.55C133.71 320.73 132.74 326 132.28 327.76C131.82 329.52 132.46 330.41 133.4 329.98C134.04 329.68 135.57 324.33 135.99 322.59C136.41 320.85 137.46 316.03 138.87 318.82C140.28 321.61 142.42 323.23 143.3 323.27C143.498 323.247 143.685 323.165 143.837 323.035C143.988 322.905 144.097 322.733 144.15 322.541C144.203 322.348 144.197 322.144 144.132 321.955C144.068 321.766 143.949 321.601 143.79 321.48C143.033 320.741 142.383 319.899 141.86 318.98C141.393 318.264 141.055 317.472 140.86 316.64C140.457 314.981 140.222 313.286 140.16 311.58L140 310.58C142.24 299.49 148.69 266.94 158 246.15L161.82 254.01L163.48 259.83L153.3 284.96L196.72 284.39L190.24 259.45L198.11 233.45C206.62 233.64 228.47 233.96 232.11 232.31C236.69 230.31 260.38 200.39 260.38 200.39C261.924 199.19 263.403 197.908 264.81 196.55C264.81 196.55 266.25 195.34 265.38 194.44Z" fill="#FFBE9D"/>
<path d="M151.39 266.39C152.65 262.09 159.12 240.83 159.12 240.83C159.12 240.83 162.3 258.16 161.46 260.25C160.687 262.039 159.775 263.764 158.73 265.41C151.39 276.58 152.35 282.17 152.35 282.17L196.7 280.82C196.8 274.62 193.13 260.2 192.37 257.9C191.61 255.6 194.14 248.07 194.14 248.07C194.14 248.07 199.14 242.98 198.96 240.36C198.865 238.006 198.574 235.665 198.09 233.36L225.09 234.36L224.24 216.06L185.46 212.18C184.11 215.99 171.9 214.12 171.9 214.12C158.72 214.56 157.9 216.98 152.42 221.24C146.94 225.5 137.87 262.06 137.87 262.06L151.39 266.39Z" fill="#6276F6"/>
<path d="M177.61 262.06C176.841 262.197 176.058 262.237 175.28 262.18C173.83 262.18 171.84 262.08 169.65 261.86C167.46 261.64 165.48 261.33 164.07 261.05C163.292 260.95 162.53 260.755 161.8 260.47C162.582 260.47 163.362 260.544 164.13 260.69C165.55 260.87 167.52 261.12 169.7 261.34C171.88 261.56 173.86 261.71 175.29 261.81C176.069 261.82 176.846 261.903 177.61 262.06Z" fill="#263238"/>
<path d="M180.65 258.29C179.881 258.667 179.068 258.946 178.23 259.12C174.24 260.168 170.124 260.656 166 260.57C165.147 260.598 164.293 260.517 163.46 260.33C164.302 260.224 165.151 260.18 166 260.2C167.57 260.15 169.73 260.04 172.11 259.76C174.49 259.48 176.61 259.08 178.11 258.76C178.943 258.538 179.792 258.38 180.65 258.29Z" fill="#263238"/>
<path d="M195.57 241.47C195.55 242.232 195.446 242.99 195.26 243.73C195 245.12 194.6 247.02 194.09 249.1C193.58 251.18 193.09 253.1 192.65 254.4C192.473 255.144 192.211 255.865 191.87 256.55C191.926 255.79 192.067 255.038 192.29 254.31C192.67 252.75 193.1 250.95 193.58 248.98C194.06 247.01 194.52 245.21 194.9 243.65C195.035 242.899 195.26 242.167 195.57 241.47Z" fill="#263238"/>
<path d="M151.86 263.84C149.547 263.483 147.263 262.951 145.03 262.25C142.748 261.716 140.508 261.014 138.33 260.15C140.642 260.513 142.925 261.044 145.16 261.74C147.443 262.272 149.682 262.974 151.86 263.84Z" fill="#263238"/>
<path d="M198.57 233.14C198.192 233.205 197.807 233.205 197.429 233.14C196.385 233.033 195.359 232.787 194.38 232.41C192.744 231.795 191.254 230.845 190.008 229.62C188.761 228.396 187.784 226.924 187.139 225.3C186.427 223.513 186.123 221.589 186.249 219.67C186.294 218.086 186.768 216.545 187.619 215.21C188.219 214.31 189.114 213.649 190.149 213.34C190.426 213.263 190.712 213.226 190.999 213.23C191.199 213.23 191.299 213.23 191.299 213.23C191.299 213.23 190.88 213.23 190.21 213.5C189.259 213.851 188.453 214.509 187.919 215.37C186.559 217.51 186.18 221.42 187.63 225.07C188.304 226.791 189.361 228.336 190.719 229.59C191.833 230.615 193.115 231.441 194.509 232.03C195.818 232.547 197.18 232.919 198.57 233.14Z" fill="#263238"/>
<path d="M221.88 234C221.63 230.933 221.55 227.855 221.64 224.78C221.562 221.707 221.656 218.632 221.92 215.57C222.171 218.633 222.251 221.708 222.16 224.78C222.244 227.856 222.151 230.934 221.88 234Z" fill="#263238"/>
<path d="M185.2 213.3C185.31 211.07 185.54 208.55 185.54 208.55C185.54 208.55 191.06 207.94 191.39 202.24C191.72 196.54 191.39 183.39 191.39 183.39L181.39 178.27L170.29 187L172 215.5L182.18 216.15C182.958 216.172 183.713 215.884 184.279 215.349C184.845 214.815 185.177 214.078 185.2 213.3Z" fill="#FFBE9D"/>
<path d="M186.19 197.73C186.19 197.73 186.19 197.84 186.1 197.97C186.025 198.064 185.929 198.139 185.819 198.188C185.709 198.236 185.589 198.258 185.47 198.25C184.83 198.25 184.21 197.51 183.99 196.65C183.885 196.233 183.885 195.797 183.99 195.38C184.01 195.198 184.076 195.024 184.18 194.874C184.285 194.723 184.426 194.602 184.59 194.52C184.724 194.464 184.875 194.464 185.01 194.52C185.109 194.569 185.19 194.65 185.24 194.75C185.31 194.92 185.24 195.03 185.24 195.02C185.24 195.01 185.24 194.92 185.14 194.82C185.087 194.748 185.01 194.698 184.924 194.68C184.837 194.661 184.746 194.676 184.67 194.72C184.547 194.794 184.445 194.898 184.373 195.022C184.302 195.146 184.262 195.286 184.26 195.43C184.175 195.802 184.175 196.188 184.26 196.56C184.46 197.34 185 197.97 185.48 198.03C185.573 198.042 185.669 198.036 185.76 198.01C185.851 197.984 185.936 197.94 186.01 197.88C186.13 197.8 186.17 197.72 186.19 197.73Z" fill="#EB996E"/>
<path d="M194.82 180.31C194.05 177.69 191.26 176.39 188.72 175.67C184.85 174.57 180.67 174.09 176.89 175.48C173.11 176.87 168.57 179.31 168.57 183.48C166.34 183.3 165.06 185.25 164.18 187.67C163.617 189.144 163.28 190.695 163.18 192.27C162.9 197.73 161.37 205.27 157.83 209.27C155.83 211.5 153.06 213.04 151.92 215.82C150.92 218.23 151.44 221.09 150.51 223.53C149.68 225.68 147.85 227.21 146.51 229.08C145.145 231.201 144.341 233.635 144.175 236.152C144.009 238.669 144.485 241.187 145.56 243.47C146.642 245.694 148.165 247.674 150.038 249.29C151.91 250.906 154.092 252.124 156.45 252.87C161.121 254.291 166.102 254.339 170.8 253.01C174.325 252.167 177.614 250.536 180.42 248.24C183.29 245.896 185.261 242.631 186 239C186.71 234.92 185.57 230.77 184.72 226.71C182.06 213.88 182.82 213.21 186.18 201.3C186.26 201.09 186.3 200.87 186.36 200.66C186.42 200.45 186.45 200.35 186.49 200.19C186.585 199.719 186.635 199.24 186.64 198.76C186.149 198.942 185.616 198.981 185.104 198.871C184.592 198.761 184.122 198.508 183.75 198.14C183.376 197.748 183.116 197.262 182.996 196.734C182.876 196.205 182.902 195.655 183.07 195.14C183.306 194.577 183.657 194.069 184.102 193.651C184.546 193.232 185.073 192.912 185.65 192.71C186.76 192.25 187.95 192.01 189.04 191.5C191.35 190.4 192.95 188.12 194.04 185.73C194.936 184.073 195.212 182.152 194.82 180.31Z" fill="#263238"/>
<path d="M186.59 198C186.801 198.312 186.976 198.648 187.11 199C187.41 199.63 187.81 200.52 188.25 201.55L188.33 201.74H188.12L187.12 201.83C186.43 201.83 185.85 201.96 185.17 201.95C185.111 201.937 185.056 201.909 185.01 201.868C184.965 201.828 184.93 201.777 184.91 201.72C184.88 201.629 184.88 201.531 184.91 201.44C184.933 201.305 184.963 201.172 185 201.04L185.18 200.33C185.27 199.856 185.411 199.394 185.6 198.95C185.581 199.433 185.511 199.912 185.39 200.38L185.25 201.09C185.2 201.33 185.11 201.7 185.25 201.67C185.75 201.67 186.46 201.56 187.12 201.52L188.12 201.43L187.99 201.65C187.56 200.65 187.2 199.71 186.99 199.06C186.806 198.728 186.671 198.371 186.59 198Z" fill="#6276F6"/>
<path d="M152.35 282.17L196.7 280.82L216 356.16L212.45 442.58H189L191.87 358L174.72 305.55L177.36 445.93L153.66 446.28L151.17 314.33C151.06 310.66 149.86 302.39 150.31 298.75L152.35 282.17Z" fill="#263238"/>
<path d="M180.62 306.62C179.894 306.665 179.165 306.622 178.45 306.49C177.11 306.33 175.28 306.05 173.27 305.65C171.26 305.25 169.46 304.79 168.16 304.42C167.465 304.267 166.793 304.025 166.16 303.7C166.16 303.55 169.42 304.33 173.42 305.14C177.42 305.95 180.64 306.47 180.62 306.62Z" fill="#455A64"/>
<path d="M212.21 437.84C212.21 437.98 206.9 438.1 200.35 438.1C193.8 438.1 188.479 437.98 188.479 437.84C188.479 437.7 193.79 437.58 200.35 437.58C206.91 437.58 212.21 437.69 212.21 437.84Z" fill="#455A64"/>
<path d="M177.15 442.28C177.15 442.43 171.99 442.54 165.63 442.54C159.27 442.54 154.12 442.43 154.12 442.28C154.12 442.13 159.28 442.02 165.63 442.02C171.98 442.02 177.15 442.14 177.15 442.28Z" fill="#455A64"/>
<path d="M174.09 441.92C173.95 441.92 173.33 411.25 172.7 373.42C172.07 335.59 171.7 304.9 171.83 304.9C171.96 304.9 172.6 335.56 173.22 373.41C173.84 411.26 174.24 441.92 174.09 441.92Z" fill="#455A64"/>
<path d="M209.06 437.84C209.049 437.703 209.049 437.566 209.06 437.43V436.23C209.06 435.15 209.14 433.6 209.2 431.63C209.34 427.63 209.54 421.82 209.79 414.7C210.33 400.38 211.09 380.64 211.92 358.85C211.92 358.64 211.92 358.44 211.92 358.26V358.33C206.67 337.33 201.92 318.27 198.47 304.48L194.47 288.17C194.01 286.26 193.66 284.77 193.41 283.73C193.29 283.24 193.21 282.86 193.14 282.57C193.101 282.44 193.078 282.306 193.07 282.17C193.122 282.296 193.162 282.426 193.19 282.56C193.27 282.84 193.37 283.22 193.51 283.7C193.78 284.7 194.17 286.22 194.67 288.12C195.67 291.98 197.08 297.54 198.84 304.39C202.32 318.17 207.12 337.18 212.44 358.21V358.28C212.44 358.46 212.44 358.67 212.44 358.87C211.55 380.66 210.74 400.39 210.15 414.71C209.84 421.84 209.58 427.61 209.4 431.63C209.3 433.63 209.22 435.15 209.17 436.23C209.17 436.74 209.11 437.14 209.1 437.43C209.102 437.568 209.088 437.705 209.06 437.84Z" fill="#455A64"/>
<path d="M201.41 356.5C199.725 357.054 197.99 357.439 196.23 357.65C194.07 358.02 192.23 358.28 191.4 358.32V358.12C191.67 358.2 191.81 358.25 191.81 358.29C191.81 358.33 191.64 358.29 191.36 358.29H190.76L191.36 358.11C192.14 357.88 193.98 357.5 196.14 357.11C197.872 356.734 199.637 356.53 201.41 356.5Z" fill="#455A64"/>
<path d="M201 359.37C199.44 359.441 197.877 359.371 196.33 359.16C194.768 359.128 193.212 358.957 191.68 358.65C194.805 358.395 197.951 358.638 201 359.37Z" fill="#455A64"/>
<path opacity="0.2" d="M152.16 283.76C152.685 284.434 153.347 284.99 154.102 285.392C154.856 285.793 155.687 286.031 156.54 286.09C158.326 286.301 160.133 286.268 161.91 285.99C173.36 284.72 185.49 283.55 196.7 280.82C182.19 281.63 166.86 281.36 152.35 282.17L152.2 283.41" fill="black"/>
<g opacity="0.2">
<path d="M167.11 304.21L175.29 335.95L174.72 305.55L167.11 304.21Z" fill="black"/>
</g>
</svg>
