<svg width="9" height="10" viewBox="0 0 9 10" fill="none" xmlns="http://www.w3.org/2000/svg">
<path d="M5.02761 7.02081C4.95489 6.9481 4.91999 6.86024 4.9229 6.75723C4.92605 6.65422 4.96398 6.56636 5.0367 6.49365L6.06376 5.46659H2.01005C1.90704 5.46659 1.82063 5.43169 1.75083 5.36188C1.68127 5.29232 1.64648 5.20604 1.64648 5.10303C1.64648 5.00002 1.68127 4.91361 1.75083 4.84381C1.82063 4.77425 1.90704 4.73947 2.01005 4.73947H6.06376L5.02761 3.70332C4.95489 3.6306 4.91854 3.5442 4.91854 3.4441C4.91854 3.34424 4.95489 3.25795 5.02761 3.18524C5.10032 3.11253 5.18672 3.07617 5.28683 3.07617C5.38668 3.07617 5.47297 3.11253 5.54568 3.18524L7.20898 4.84853C7.24533 4.88489 7.27114 4.92428 7.28641 4.96669C7.30144 5.00911 7.30896 5.05455 7.30896 5.10303C7.30896 5.1515 7.30144 5.19695 7.28641 5.23936C7.27114 5.28178 7.24533 5.32116 7.20898 5.35752L5.53659 7.0299C5.46994 7.09656 5.38668 7.12988 5.28683 7.12988C5.18672 7.12988 5.10032 7.09353 5.02761 7.02081Z" fill="#FEC02D"/>
</svg>
