<svg width="30" height="16" viewBox="0 0 30 16" fill="none" xmlns="http://www.w3.org/2000/svg">
<path d="M22.5093 0.594321L22.5219 0.608988L22.5356 0.622643L29.3245 7.41161C29.3246 7.41177 29.3248 7.41194 29.325 7.4121C29.3938 7.48189 29.3937 7.59394 29.325 7.66347C29.3248 7.66361 29.3247 7.66375 29.3246 7.66389L22.5356 14.4529L22.5218 14.4667L22.5091 14.4815C22.5035 14.488 22.4971 14.4945 22.4897 14.5009C22.4147 14.565 22.3018 14.5563 22.2374 14.4812C22.1732 14.4062 22.1819 14.2932 22.257 14.2289L22.2716 14.2163L22.2853 14.2026L27.9142 8.57375L28.7677 7.72019H27.5606H0.678979C0.580127 7.72019 0.5 7.64007 0.5 7.54121C0.5 7.4423 0.580182 7.36218 0.678979 7.36218H27.5606H28.7667L27.9144 6.50884L22.2855 0.873127L22.2716 0.859207L22.2566 0.846423C22.2502 0.840897 22.2437 0.834441 22.2373 0.827027C22.1732 0.752005 22.1819 0.639104 22.257 0.574815L22.257 0.574776C22.332 0.510513 22.445 0.519212 22.5093 0.594321Z" fill="black" stroke="#E71345"/>
</svg>
