<svg width="26" height="24" viewBox="0 0 26 24" fill="none" xmlns="http://www.w3.org/2000/svg">
<g clip-path="url(#clip0_460_2866)">
<path d="M5.32999 4.92798C5.32999 2.2067 7.5367 0 10.2585 0C12.9804 0 15.1865 2.2067 15.1865 4.92798C15.1865 7.64925 12.9798 9.85596 10.2585 9.85596C7.53727 9.85596 5.33057 7.64925 5.33057 4.92798H5.32999ZM17.6849 14.4039C17.6687 14.2902 17.6133 14.1856 17.5284 14.1082C16.222 12.8845 14.4744 12.244 12.6864 12.3341H7.75846C2.75656 12.3341 0.982422 15.9933 0.982422 19.135C0.982422 21.944 2.473 23.4225 5.29476 23.4225H11.7012C11.7994 23.4254 11.8941 23.3849 11.9599 23.3116C12.0286 23.24 12.0679 23.1458 12.0708 23.0465V20.9582C12.0708 20.4685 12.266 19.9984 12.6131 19.6524L17.578 14.6627C17.6456 14.5934 17.6837 14.5004 17.6855 14.4039H17.6849ZM13.9183 20.9201V24H16.9982L22.5903 18.4321L19.4867 15.3285L13.9177 20.9195L13.9183 20.9201ZM24.6602 14.6748L23.2805 13.2951C22.8 12.8175 22.0238 12.8175 21.5433 13.2951L20.3617 14.49L23.4653 17.5936L24.6602 16.412C25.1372 15.9315 25.1372 15.1564 24.6602 14.6759V14.6748Z" fill="black"/>
</g>
<defs>
<clipPath id="clip0_460_2866">
<rect width="24.0358" height="24" fill="white" transform="translate(0.982422)"/>
</clipPath>
</defs>
</svg>
