<svg width="32" height="31" viewBox="0 0 32 31" fill="none" xmlns="http://www.w3.org/2000/svg">
<path d="M28.5087 12.9704H27.4663V12.9168H15.8187V18.0835H23.1327C22.0657 21.0911 19.1984 23.2502 15.8187 23.2502C11.5305 23.2502 8.05365 19.7801 8.05365 15.5002C8.05365 11.2202 11.5305 7.75016 15.8187 7.75016C17.7981 7.75016 19.599 8.49545 20.9702 9.71285L24.6307 6.05937C22.3193 3.90939 19.2276 2.5835 15.8187 2.5835C8.67162 2.5835 2.87695 8.36693 2.87695 15.5002C2.87695 22.6334 8.67162 28.4168 15.8187 28.4168C22.9658 28.4168 28.7604 22.6334 28.7604 15.5002C28.7604 14.6341 28.6711 13.7887 28.5087 12.9704Z" fill="#FFC107"/>
<path d="M4.36914 9.4881L8.62115 12.6004C9.77167 9.75741 12.558 7.75016 15.8187 7.75016C17.7981 7.75016 19.599 8.49545 20.9702 9.71285L24.6307 6.05937C22.3193 3.90939 19.2276 2.5835 15.8187 2.5835C10.8478 2.5835 6.53688 5.38447 4.36914 9.4881Z" fill="#FF3D00"/>
<path d="M15.8192 28.4166C19.1621 28.4166 22.1995 27.1398 24.496 25.0635L20.4906 21.6806C19.1476 22.7 17.5065 23.2513 15.8192 23.25C12.4531 23.25 9.59491 21.1077 8.51816 18.1182L4.29785 21.3635C6.43971 25.5465 10.7894 28.4166 15.8192 28.4166Z" fill="#4CAF50"/>
<path d="M28.5094 12.9701H27.4669V12.9165H15.8193V18.0832H23.1334C22.6229 19.5146 21.7035 20.7654 20.4887 21.6811L20.4907 21.6798L24.4961 25.0627C24.2127 25.3197 28.7611 21.9582 28.7611 15.4998C28.7611 14.6338 28.6718 13.7884 28.5094 12.9701Z" fill="#1976D2"/>
</svg>
