<svg width="41" height="41" viewBox="0 0 41 41" fill="none" xmlns="http://www.w3.org/2000/svg">
<path d="M35.8129 14.1119C35.7958 12.825 35.5549 11.5508 35.1009 10.3465C34.7073 9.33065 34.1061 8.40807 33.3358 7.63771C32.5654 6.86735 31.6428 6.26616 30.627 5.87254C29.4381 5.42626 28.1822 5.18495 26.9126 5.15889C25.2779 5.08582 24.7597 5.06543 20.6103 5.06543C16.4609 5.06543 15.929 5.06543 14.3063 5.15889C13.0373 5.18514 11.7819 5.42645 10.5936 5.87254C9.57756 6.26589 8.65484 6.86698 7.88445 7.63737C7.11405 8.40777 6.51296 9.33049 6.11961 10.3465C5.67244 11.5345 5.43165 12.7901 5.40765 14.0592C5.33459 15.6955 5.3125 16.2138 5.3125 20.3632C5.3125 24.5126 5.3125 25.0428 5.40765 26.6672C5.43314 27.9382 5.67273 29.1922 6.11961 30.3833C6.51362 31.399 7.11516 32.3214 7.88581 33.0914C8.65646 33.8615 9.57927 34.4623 10.5953 34.8556C11.7803 35.3198 13.0359 35.5784 14.308 35.6202C15.9443 35.6933 16.4626 35.7154 20.612 35.7154C24.7614 35.7154 25.2932 35.7154 26.916 35.6202C28.1855 35.5952 29.4416 35.3545 30.6304 34.9082C31.646 34.5142 32.5683 33.9128 33.3386 33.1425C34.1089 32.3722 34.7103 31.4499 35.1043 30.4343C35.5512 29.2449 35.7908 27.9909 35.8163 26.7182C35.8894 25.0836 35.9115 24.5653 35.9115 20.4142C35.9081 16.2648 35.9081 15.738 35.8129 14.1119V14.1119ZM20.6001 28.2101C16.2604 28.2101 12.7447 24.6944 12.7447 20.3547C12.7447 16.015 16.2604 12.4994 20.6001 12.4994C22.6835 12.4994 24.6815 13.327 26.1547 14.8001C27.6278 16.2733 28.4554 18.2713 28.4554 20.3547C28.4554 22.4381 27.6278 24.4361 26.1547 25.9093C24.6815 27.3824 22.6835 28.2101 20.6001 28.2101V28.2101ZM28.7681 14.0405C28.5275 14.0408 28.2892 13.9935 28.0668 13.9016C27.8445 13.8096 27.6425 13.6747 27.4724 13.5045C27.3022 13.3344 27.1673 13.1324 27.0753 12.91C26.9834 12.6877 26.9361 12.4494 26.9364 12.2088C26.9364 11.9684 26.9837 11.7303 27.0757 11.5082C27.1677 11.286 27.3026 11.0842 27.4726 10.9142C27.6426 10.7442 27.8445 10.6093 28.0666 10.5173C28.2887 10.4253 28.5268 10.3779 28.7672 10.3779C29.0077 10.3779 29.2457 10.4253 29.4679 10.5173C29.69 10.6093 29.8918 10.7442 30.0619 10.9142C30.2319 11.0842 30.3667 11.286 30.4587 11.5082C30.5507 11.7303 30.5981 11.9684 30.5981 12.2088C30.5981 13.2215 29.7791 14.0405 28.7681 14.0405Z" fill="white"/>
<path d="M20.5988 25.4573C23.4169 25.4573 25.7014 23.1727 25.7014 20.3546C25.7014 17.5365 23.4169 15.252 20.5988 15.252C17.7806 15.252 15.4961 17.5365 15.4961 20.3546C15.4961 23.1727 17.7806 25.4573 20.5988 25.4573Z" fill="white"/>
</svg>
