<svg width="26" height="24" viewBox="0 0 26 24" fill="none" xmlns="http://www.w3.org/2000/svg">
<g clip-path="url(#clip0_460_2898)">
<path d="M7.20322 12.9969H16.5085V19.976C16.7833 21.9034 15.4442 23.6893 13.5162 23.9641C13.1859 24.0115 12.8507 24.0115 12.5204 23.9641H4.5443C2.61695 24.2389 0.831049 22.8998 0.556247 20.9718C0.508889 20.6415 0.508889 20.3063 0.556247 19.976V4.02381C0.281445 2.09646 1.62118 0.311178 3.54854 0.0357526C3.8788 -0.0116056 4.21404 -0.0116056 4.5443 0.0357526H12.5204C14.4478 -0.239049 16.2337 1.10007 16.5085 3.02804C16.5558 3.3583 16.5558 3.69355 16.5085 4.02381V11.0029H7.22939C6.71779 11.0029 6.26851 11.378 6.21243 11.8865C6.14638 12.4878 6.61498 12.9969 7.20322 12.9969ZM25.405 11.6198C25.3545 11.4989 25.2816 11.3886 25.1894 11.2952L21.2013 7.3071C20.7981 6.93198 20.1675 6.95378 19.7924 7.35695C19.4353 7.73956 19.4353 8.3334 19.7924 8.71601L22.0774 11.0023H16.5085V12.9963H22.0774L19.7924 15.2838C19.3892 15.659 19.3674 16.2902 19.7425 16.6927C20.1177 17.0959 20.7489 17.1177 21.1514 16.7426C21.1689 16.7264 21.1851 16.7102 21.2013 16.6927L25.1894 12.7047C25.281 12.6112 25.3545 12.5009 25.405 12.38C25.5059 12.1364 25.5059 11.8622 25.405 11.6186V11.6198Z" fill="black"/>
</g>
<defs>
<clipPath id="clip0_460_2898">
<rect width="24.9596" height="24" fill="white" transform="translate(0.520508)"/>
</clipPath>
</defs>
</svg>
