<svg width="42" height="41" viewBox="0 0 42 41" fill="none" xmlns="http://www.w3.org/2000/svg">
<path d="M20.9977 2.54883C11.1451 2.54883 3.15625 10.5377 3.15625 20.3903C3.15625 30.2429 11.1451 38.2318 20.9977 38.2318C30.8503 38.2318 38.8392 30.2429 38.8392 20.3903C38.8392 10.5377 30.8503 2.54883 20.9977 2.54883ZM29.572 15.9976C29.5839 16.1848 29.5839 16.3799 29.5839 16.5711C29.5839 22.4174 25.1315 29.1517 16.9953 29.1517C14.4864 29.1517 12.1606 28.4229 10.2012 27.1685C10.5597 27.2083 10.9022 27.2242 11.2685 27.2242C13.3394 27.2242 15.243 26.5233 16.7604 25.3365C14.8169 25.2967 13.1841 24.0223 12.6266 22.27C13.3076 22.3696 13.9209 22.3696 14.6218 22.1904C13.6211 21.9871 12.7216 21.4436 12.0762 20.6523C11.4309 19.861 11.0793 18.8706 11.0814 17.8495V17.7937C11.6668 18.1243 12.3558 18.3274 13.0766 18.3552C12.4706 17.9514 11.9737 17.4043 11.6298 16.7624C11.2859 16.1205 11.1058 15.4037 11.1053 14.6754C11.1053 13.8511 11.3203 13.0984 11.7066 12.4453C12.8173 13.8126 14.2033 14.9309 15.7746 15.7275C17.3458 16.5241 19.067 16.9811 20.8265 17.0689C20.2012 14.0621 22.4473 11.6289 25.1474 11.6289C26.4218 11.6289 27.5688 12.1625 28.3772 13.0227C29.3768 12.8355 30.3326 12.4612 31.1849 11.9594C30.8543 12.9829 30.1614 13.8471 29.2414 14.3927C30.1335 14.2971 30.9937 14.0502 31.7902 13.7037C31.1889 14.5878 30.4362 15.3724 29.572 15.9976V15.9976Z" fill="white"/>
</svg>
